<?xml version="1.0" encoding="utf-8"?>
<!-- Generator: Adobe Illustrator 23.0.5, SVG Export Plug-In . SVG Version: 6.00 Build 0)  -->
<svg version="1.1" id="Слой_1" xmlns="http://www.w3.org/2000/svg" xmlns:xlink="http://www.w3.org/1999/xlink" x="0px" y="0px"
	 viewBox="0 0 1417.2 879.1" style="enable-background:new 0 0 1417.2 879.1;" xml:space="preserve">
<style type="text/css">
	.st0{fill:url(#SVGID_1_);}
	.st1{fill:#FFFFFF;}
	.st2{fill:#E3ECFF;}
	.st3{fill:#6488F5;}
	.st4{fill:#F0C446;}
	.st5{fill:#3F964F;}
	.st6{fill:url(#SVGID_2_);}
	.st7{fill:url(#SVGID_3_);}
	.st8{fill:url(#SVGID_4_);}
	.st9{fill:#FCF4E0;}
	.st10{fill:#CC5E5D;}
	.st11{fill:#ECB65A;}
	.st12{fill:#FFB9B9;}
	.st13{fill:#2F2E41;}
	.st14{fill:#C16241;}
	.st15{fill:#8B675A;}
	.st16{fill:#E6E6E6;}
</style>
<g>
	<g>
		<linearGradient id="SVGID_1_" gradientUnits="userSpaceOnUse" x1="708.5861" y1="43.7138" x2="708.5861" y2="863.0798">
			<stop  offset="0" style="stop-color:#E5E4FD"/>
			<stop  offset="0.2926" style="stop-color:#CDD3F6"/>
			<stop  offset="0.747" style="stop-color:#AEBCED"/>
			<stop  offset="1" style="stop-color:#A2B3EA"/>
		</linearGradient>
		<path class="st0" d="M59.4,850.8C-55.8,677.2,9.9,502.6,142.6,403.5C277.5,302.8,125.2,94.4,393.7,9.6
			c138.9-43.9,261,75.8,397.2,81c122,4.7,248.2-100.8,372-52c82.8,28.1,165.6,107.1,159.4,201.5c-3.2,48.8-31.4,106.5-2.2,143.6
			c123.5,156.4,110.7,293.2,62.3,464.9C1382.5,848.6,59.4,850.8,59.4,850.8z"/>
	</g>
	<g id="XMLID_1035_">
		<path id="XMLID_1042_" class="st1" d="M1201.3,616.2h-123.8c-3,0-5.4,2.4-5.4,5.4c0,3,2.4,5.4,5.4,5.4h123.8c3,0,5.4-2.4,5.4-5.4
			C1206.7,618.6,1204.3,616.2,1201.3,616.2z"/>
		<path id="XMLID_1041_" class="st1" d="M1038.1,616.2h-24.2c-3,0-5.4,2.4-5.4,5.4c0,3,2.4,5.4,5.4,5.4h24.2c3,0,5.4-2.4,5.4-5.4
			C1043.5,618.6,1041.1,616.2,1038.1,616.2z"/>
		<path id="XMLID_1043_" class="st1" d="M1068.3,660.2c0,3-2.4,5.4-5.4,5.4h-27.1c-3,0-5.4-2.4-5.4-5.4c0-3,2.4-5.4,5.4-5.4h27.1
			C1065.9,654.8,1068.3,657.2,1068.3,660.2z"/>
		<path id="XMLID_1036_" class="st1" d="M1103.1,660.2c0,3-1.4,5.4-3.1,5.4h-15.4c-1.7,0-3.1-2.4-3.1-5.4c0-3,1.4-5.4,3.1-5.4h15.4
			C1101.7,654.8,1103.1,657.2,1103.1,660.2z"/>
		<path id="XMLID_1037_" class="st1" d="M1161.5,660.2c0,3-1.4,5.4-3.1,5.4H1143c-1.7,0-3.1-2.4-3.1-5.4c0-3,1.4-5.4,3.1-5.4h15.4
			C1160.1,654.8,1161.5,657.2,1161.5,660.2z"/>
	</g>
	<g id="XMLID_1039_">
		<path id="XMLID_1047_" class="st1" d="M412.7,32.3v123.8c0,3,2.4,5.4,5.4,5.4c3,0,5.4-2.4,5.4-5.4V32.3c0-3-2.4-5.4-5.4-5.4
			C415.1,26.9,412.7,29.3,412.7,32.3z"/>
		<path id="XMLID_1046_" class="st1" d="M412.7,195.5v24.2c0,3,2.4,5.4,5.4,5.4s5.4-2.4,5.4-5.4v-24.2c0-3-2.4-5.4-5.4-5.4
			S412.7,192.5,412.7,195.5z"/>
		<path id="XMLID_1045_" class="st1" d="M456.7,165.3c3,0,5.4,2.4,5.4,5.4v27.1c0,3-2.4,5.4-5.4,5.4c-3,0-5.4-2.4-5.4-5.4v-27.1
			C451.3,167.8,453.7,165.3,456.7,165.3z"/>
		<path id="XMLID_1044_" class="st1" d="M456.7,130.6c3,0,5.4,1.4,5.4,3.1v15.4c0,1.7-2.4,3.1-5.4,3.1c-3,0-5.4-1.4-5.4-3.1v-15.4
			C451.3,131.9,453.7,130.6,456.7,130.6z"/>
		<path id="XMLID_1040_" class="st1" d="M456.7,72.1c3,0,5.4,1.4,5.4,3.1v15.4c0,1.7-2.4,3.1-5.4,3.1c-3,0-5.4-1.4-5.4-3.1V75.2
			C451.3,73.5,453.7,72.1,456.7,72.1z"/>
	</g>
	<g id="XMLID_1054_">
		<path id="XMLID_1059_" class="st1" d="M604,742.9H480.3c-3,0-5.4,2.4-5.4,5.4c0,3,2.4,5.4,5.4,5.4H604c3,0,5.4-2.4,5.4-5.4
			C609.5,745.3,607,742.9,604,742.9z"/>
		<path id="XMLID_1058_" class="st1" d="M440.9,742.9h-24.2c-3,0-5.4,2.4-5.4,5.4s2.4,5.4,5.4,5.4h24.2c3,0,5.4-2.4,5.4-5.4
			S443.9,742.9,440.9,742.9z"/>
		<path id="XMLID_1057_" class="st1" d="M471,786.9c0,3-2.4,5.4-5.4,5.4h-27.1c-3,0-5.4-2.4-5.4-5.4c0-3,2.4-5.4,5.4-5.4h27.1
			C468.6,781.5,471,783.9,471,786.9z"/>
		<path id="XMLID_1056_" class="st1" d="M505.8,786.9c0,3-1.4,5.4-3.1,5.4h-15.4c-1.7,0-3.1-2.4-3.1-5.4c0-3,1.4-5.4,3.1-5.4h15.4
			C504.4,781.5,505.8,783.9,505.8,786.9z"/>
		<path id="XMLID_1055_" class="st1" d="M564.3,786.9c0,3-1.4,5.4-3.1,5.4h-15.4c-1.7,0-3.1-2.4-3.1-5.4c0-3,1.4-5.4,3.1-5.4h15.4
			C562.9,781.5,564.3,783.9,564.3,786.9z"/>
	</g>
	<g id="XMLID_1060_">
		<path id="XMLID_1065_" class="st1" d="M1312.6,357.1h-123.8c-3,0-5.4,2.4-5.4,5.4c0,3,2.4,5.4,5.4,5.4h123.8c3,0,5.4-2.4,5.4-5.4
			C1318,359.5,1315.6,357.1,1312.6,357.1z"/>
		<path id="XMLID_1064_" class="st1" d="M1149.5,357.1h-24.2c-3,0-5.4,2.4-5.4,5.4s2.4,5.4,5.4,5.4h24.2c3,0,5.4-2.4,5.4-5.4
			S1152.4,357.1,1149.5,357.1z"/>
		<path id="XMLID_1063_" class="st1" d="M1179.6,401.1c0,3-2.4,5.4-5.4,5.4h-27.1c-3,0-5.4-2.4-5.4-5.4c0-3,2.4-5.4,5.4-5.4h27.1
			C1177.2,395.7,1179.6,398.1,1179.6,401.1z"/>
		<path id="XMLID_1062_" class="st1" d="M1214.4,401.1c0,3-1.4,5.4-3.1,5.4h-15.4c-1.7,0-3.1-2.4-3.1-5.4c0-3,1.4-5.4,3.1-5.4h15.4
			C1213,395.7,1214.4,398.1,1214.4,401.1z"/>
		<path id="XMLID_1061_" class="st1" d="M1272.9,401.1c0,3-1.4,5.4-3.1,5.4h-15.4c-1.7,0-3.1-2.4-3.1-5.4c0-3,1.4-5.4,3.1-5.4h15.4
			C1271.5,395.7,1272.9,398.1,1272.9,401.1z"/>
	</g>
	<g id="XMLID_1048_">
		<path id="XMLID_1053_" class="st1" d="M641.6,283.5V159.7c0-3-2.4-5.4-5.4-5.4c-3,0-5.4,2.4-5.4,5.4v123.8c0,3,2.4,5.4,5.4,5.4
			C639.2,288.9,641.6,286.4,641.6,283.5z"/>
		<path id="XMLID_1052_" class="st1" d="M641.6,120.3V96.1c0-3-2.4-5.4-5.4-5.4s-5.4,2.4-5.4,5.4v24.2c0,3,2.4,5.4,5.4,5.4
			S641.6,123.3,641.6,120.3z"/>
		<path id="XMLID_1051_" class="st1" d="M597.6,150.4c-3,0-5.4-2.4-5.4-5.4V118c0-3,2.4-5.4,5.4-5.4c3,0,5.4,2.4,5.4,5.4V145
			C603,148,600.6,150.4,597.6,150.4z"/>
		<path id="XMLID_1050_" class="st1" d="M597.6,185.2c-3,0-5.4-1.4-5.4-3.1v-15.4c0-1.7,2.4-3.1,5.4-3.1c3,0,5.4,1.4,5.4,3.1v15.4
			C603,183.8,600.6,185.2,597.6,185.2z"/>
		<path id="XMLID_1049_" class="st1" d="M597.6,243.7c-3,0-5.4-1.4-5.4-3.1v-15.4c0-1.7,2.4-3.1,5.4-3.1c3,0,5.4,1.4,5.4,3.1v15.4
			C603,242.3,600.6,243.7,597.6,243.7z"/>
	</g>
	<ellipse class="st2" cx="707" cy="851.4" rx="670.8" ry="27.7"/>
	<g>
		
			<ellipse transform="matrix(0.1226 -0.9925 0.9925 0.1226 684.8754 1294.7991)" class="st3" cx="1074.7" cy="260.1" rx="174.1" ry="174.1"/>
		<path class="st4" d="M1248.8,259.2c-0.5-95.8-78.2-173.3-174.1-173.3v173.3H1248.8z"/>
		<path class="st5" d="M1074.7,259.2l69.8,160.4c61.4-26.9,104.3-88.2,104.3-159.5c0-0.3,0-0.6,0-0.9l0,0H1074.7z"/>
	</g>
	<linearGradient id="SVGID_2_" gradientUnits="userSpaceOnUse" x1="678.0898" y1="751.6996" x2="678.0898" y2="704.9943">
		<stop  offset="0" style="stop-color:#E5E4FD"/>
		<stop  offset="0.2926" style="stop-color:#CDD3F6"/>
		<stop  offset="0.747" style="stop-color:#AEBCED"/>
		<stop  offset="1" style="stop-color:#A2B3EA"/>
	</linearGradient>
	<rect x="542.8" y="682.3" class="st6" width="270.6" height="138.1"/>
	<linearGradient id="SVGID_3_" gradientUnits="userSpaceOnUse" x1="678.0898" y1="786.7343" x2="678.0898" y2="888.0139">
		<stop  offset="0" style="stop-color:#AFAEB6"/>
		<stop  offset="0.2121" style="stop-color:#9598A3"/>
		<stop  offset="0.7461" style="stop-color:#576475"/>
		<stop  offset="1" style="stop-color:#3F5063"/>
	</linearGradient>
	<path class="st7" d="M862.2,840.9H493.9c-10.1,0-18.2-8.2-18.2-18.2l0,0c0-10.1,8.2-18.2,18.2-18.2h368.3
		c10.1,0,18.2,8.2,18.2,18.2l0,0C880.5,832.8,872.3,840.9,862.2,840.9z"/>
	<linearGradient id="SVGID_4_" gradientUnits="userSpaceOnUse" x1="678.0898" y1="817.6208" x2="678.0898" y2="709.7659">
		<stop  offset="0" style="stop-color:#AFAEB6"/>
		<stop  offset="0.2121" style="stop-color:#9598A3"/>
		<stop  offset="0.7461" style="stop-color:#576475"/>
		<stop  offset="1" style="stop-color:#3F5063"/>
	</linearGradient>
	<path class="st8" d="M1043.9,729.8H312.3c-11.5,0-20.8-9.3-20.8-20.8V225.3c0-11.5,9.3-20.8,20.8-20.8h731.6
		c11.5,0,20.8,9.3,20.8,20.8V709C1064.7,720.5,1055.4,729.8,1043.9,729.8z"/>
	<path class="st1" d="M1037.4,262.6v409.1c0,17.8-14.4,32.2-32.2,32.2H351c-17.8,0-32.2-14.4-32.2-32.2V262.6
		c0-17.8,14.4-32.2,32.2-32.2h654.2c8.4,0,16.1,3.2,21.8,8.5C1033.4,244.8,1037.4,253.2,1037.4,262.6z"/>
	<g>
		<g>
			<g>
				<rect x="359" y="324.9" class="st9" width="442.1" height="319.5"/>
				<g>
					<g>
						<path class="st5" d="M359,333.7c145.5,0,291.1,0,436.6,0c1.8,0,3.6,0,5.4,0c10,0,10-17.6,0-17.6c-145.5,0-291.1,0-436.6,0
							c-1.8,0-3.6,0-5.4,0C349,316.2,349,333.7,359,333.7L359,333.7z"/>
					</g>
					<g>
						<path class="st5" d="M359,653.2c145.5,0,291.1,0,436.6,0c1.8,0,3.6,0,5.4,0c10,0,10-17.6,0-17.6c-145.5,0-291.1,0-436.6,0
							c-1.8,0-3.6,0-5.4,0C349,635.6,349,653.2,359,653.2L359,653.2z"/>
					</g>
				</g>
			</g>
		</g>
		<g>
			<g>
				<rect x="465.4" y="510.7" class="st3" width="43.4" height="98.6"/>
				<rect x="527.4" y="487.4" class="st3" width="43.4" height="121.9"/>
				<rect x="589.3" y="470.4" class="st3" width="43.4" height="138.9"/>
				<rect x="651.3" y="449.6" class="st3" width="43.4" height="159.7"/>
			</g>
			<path class="st3" d="M693.8,375.1c-13.2-3.5-26.4-7-39.5-10.5c-4.9-1.3-6.9,7.2-2.1,8.5c8.8,2.3,17.5,4.7,26.3,7
				c-73.1,27.3-146.2,54.6-219.3,82c-4.7,1.8-2.7,10.2,2.1,8.5c73.9-27.6,147.9-55.3,221.8-82.9c-5.6,9.2-11.2,18.4-16.9,27.6
				c-2.9,4.7,3.9,9.1,6.7,4.4c7.7-12.7,15.5-25.4,23.2-38C697.5,379.3,696.1,375.7,693.8,375.1z"/>
		</g>
	</g>
	<g>
		<rect id="XMLID_1032_" x="843.9" y="321.7" class="st9" width="153.6" height="331.9"/>
		<g id="XMLID_509_">
			<rect id="XMLID_1030_" x="956.4" y="418.4" class="st10" width="20.1" height="117.6"/>
			<polygon id="XMLID_900_" class="st5" points="925.3,536.1 925.5,481.7 945.6,481.7 945.4,536.1 			"/>
			<polygon id="XMLID_899_" class="st3" points="894.3,536.1 894,467.7 914.1,467.7 914.4,536.1 			"/>
			<rect id="XMLID_698_" x="863.2" y="386.4" class="st11" width="20.1" height="149.6"/>
			<path id="XMLID_512_" class="st3" d="M866.9,558.6h107.7c1.5,0,2.6-1.9,2.6-4.4l0,0c0-2.6-1.3-4.9-2.9-4.9H866.6
				c-1.5,0-2.6,1.9-2.6,4.4l0,0C863.9,556.4,865.3,558.6,866.9,558.6z"/>
			<path id="XMLID_511_" class="st3" d="M866.4,582h107.7c1.5,0,2.6-1.9,2.6-4.4l0,0c0-2.6-1.3-4.9-2.9-4.9H866.1
				c-1.5,0-2.6,1.9-2.6,4.4l0,0C863.5,579.8,864.8,582,866.4,582z"/>
			<path id="XMLID_510_" class="st3" d="M865.8,605.6h107.7c1.5,0,2.6-1.9,2.6-4.4l0,0c0-2.6-1.3-4.9-2.9-4.9H865.5
				c-1.5,0-2.6,1.9-2.6,4.4l0,0C862.9,603.4,864.2,605.6,865.8,605.6z"/>
		</g>
	</g>
	<g>
		<path class="st1" d="M939.7,200.7c21-48.5,69.3-82.7,120.6-90.8c8.3-1.3,4.8-13.9-3.5-12.6c-54.2,8.5-106.2,45.6-128.4,96.8
			C925.2,201.8,936.4,208.4,939.7,200.7L939.7,200.7z"/>
	</g>
	<g>
		<g id="XMLID_1031_">
			<polygon id="XMLID_1034_" class="st12" points="241,800.5 239.9,825.1 221.2,822.6 215.8,797.3 			"/>
		</g>
		<path d="M244.9,816c14.9,23.3,55.6,11.9,52.5,42.1c-60.6-3.9-85.8-5-85.8-5c0.5-6.9,2.7-23.4,4.4-29.8L244.9,816z"/>
		<g>
			<g>
				<g>
					<g>
						<g>
							<path class="st12" d="M197.3,215l-0.9,36.5c-0.3,12.3-8.8,12.9-20.9,12.5l0,0c-10.3-0.4-19.1-3.7-20-14l-0.6-40.1L197.3,215z
								"/>
							<path class="st12" d="M177.7,236.8l20.2,0.7c15.2,0.5,27.7-11.6,27.8-26.8l0.1-41.9c0-19-15-34.6-34-35.3l0,0
								c-19.4-0.7-39.2,14.4-39.8,33.9l0.7,43.7C152.8,225,163.8,236.3,177.7,236.8z"/>
							<path class="st13" d="M165.5,133.9c-2.1,0.1-3.5,1.1-10.3,2.4c-14.2,2.7-18.3,13.8-18.3,13.8s-1.6,12.2,0.8,15.5
								c3.8,5.2,8.4,50.8,16,58.9c2.3,2.5,4.7-32.4,4.7-32.4l0.1-26.4l22.4-19.9L165.5,133.9z"/>
							<g>
								<path class="st12" d="M137.4,195c-0.3,8,6,14.7,13.9,14.9c8,0.3,14.7-6,14.9-13.9c0.3-8-6-14.7-13.9-14.9
									C144.4,180.8,137.7,187,137.4,195z"/>
							</g>
							<path class="st13" d="M145.9,178.7c0,0,12.7,4.1,25.9-13.3c5.6-7.4,18.5,1.8,25,3.2c11.3,2.5,27.3,2.1,34-14.7
								c9.4-23.3,1.9-28-13.8-34c-11.1-4.3-33.3-2.6-41.6-1c-5.4,1.1-22.2,7.8-23.5,8.8l10.7,30L145.9,178.7z"/>
							<line class="st14" x1="164" y1="148.5" x2="195.1" y2="133.9"/>
							<polygon class="st12" points="157.9,257 182.3,285.4 195.5,257 							"/>
						</g>
					</g>
				</g>
			</g>
		</g>
		<path class="st12" d="M359.7,308.4c5.1-3.3,8.2-5.3,8.6-5.6c6.5-2.1,11.8-4.5,16.2-7c4.4-2.5,7.9-5.2,10.9-7.7l10.7-6.9
			c1.2-0.7,1.4-2.3,0.6-3.5c-0.9-1.2-2.4-1.5-3.6-0.8c0,0-9,5.1-10.2,5.4c0.4-0.6,13.8-9.8,13.8-9.8c1.2-0.8,1.4-2.3,0.6-3.4
			c-0.8-1.2-2.4-1.6-3.6-0.8c0,0-13.1,7.8-14.2,8.2c0.6-0.9,14.1-10.3,14.1-10.3c1.1-0.7,1.4-2.3,0.6-3.4c-0.9-1.2-2.5-1.6-3.6-0.8
			c0,0-15.1,9.1-15.3,8.9c-0.2-0.2,12.2-8.8,12.2-8.8c1.2-0.8,1.4-2.3,0.5-3.5c-0.8-1.2-2.4-1.6-3.6-0.8l-13.3,8.5
			c-0.2-0.1-13.6,8.7-16.6,6.6c-2.2-1.5-4.6-7-7.4-8.1c-1-0.4-3-0.6-2.7,0.5c0.9,2.9,4.3,10.6,3.1,17c-0.4,2-0.1,4.5,0.4,6.7
			c-2,0.8-4.8,1.9-8.1,3.3L359.7,308.4z"/>
		<g id="XMLID_1473_">
			<polygon id="XMLID_1475_" class="st12" points="153.3,800.5 152.2,825.1 133.5,822.6 128.1,797.3 			"/>
		</g>
		<g>
			<g>
				<path class="st13" d="M260.4,670.1c-0.1-1.7-14.1-200.1-30.4-211.5c-11.2-7.8-42.7,0.1-62,12.1c-23.8-12.2-64-17.6-66.3-0.6
					c-4.7,34.9,16,178.6,20.8,205.7c1,21.2-4.7,103,4.7,137.6c6.3-2.3,29.7-2.7,31-1.1c2-33.7,13.2-85,18.2-134
					c5.5-53.8,4.9-104.3,5.9-116.2c1.6,3.9,18.1,55.6,24.6,113.5c5.7,50,1.2,104.4,6.1,138.3c6.5-1.7,31-4.8,32.1-3.1
					C253.2,759.4,261.6,684.3,260.4,670.1z"/>
				<g>
					<path class="st15" d="M129.6,401.8"/>
				</g>
				<g>
					<path class="st16" d="M96.6,357.5c0.1-1,0.2-2.1,0.3-3.1c2.3-21.1,2.2-42.3,4-63.4c0.7-7.7,11.2,5.1,16.7-0.6
						c5.9-6.2,1.5-31.4,9.7-33.9c5.5-1.7,27.7-9.9,28.2-8.5c0.9,3.2,7.1,18.7,18.2,19c14.3,0.3,20.1-9.2,22.7-16.1
						c0.8-2.1,9.6,1,11.3,1.6c6.2,2.1,12.7,7.4,18.1,11.1c0.3,3.9,4.7,9,6.9,12.6c9.2,14.7,12.1,29.9,12.1,47c0,23.8,0,47.6,0,71.3
						c0,21.3-2.1,42.6-1.1,64.1c0.4,8.1,5,26.9,1.1,34.6c-5.1,10.2-29.1,14.3-38.9,16.4c-21.3,4.5-41.9,8.4-63.8,8.4
						c-11.2,0-30.6,4.8-40.8,1.2c-15.6-5.5-9.3-25.2-11.3-37.3c-3.3-21,2.5-43.6,3.9-64.8C95.3,397.2,94.7,377.4,96.6,357.5z"/>
				</g>
				<g>
					<g>
						<path class="st3" d="M354.8,287.7c-0.3,0.2-28.4,14.1-55,30.8c-12.5-13.2-49.3-45.2-53.7-49c-15.7-13.4-26-18.2-35.1-17.3
							c-9-1.7-13.9-3.5-14.6-1.7c-0.1,0.3,0.3,1.4,0.2,1.6c0.6,2.9,18.5,120.7,24.7,154.2c4.8,26.1,8.2,52.7,13.4,78.7
							c1.2,5.8,2.7,9.7,4.7,12.2c9.2,12,27.9,16,30.6,8.1c3.5-9.8,5.1-20.8,5-31.1c-0.2-19-1.3-38.3-2.3-57.3
							c-1-19.7-7.2-46.1-13.5-71.1c9.1,6.2,17.4,11.7,23.7,15.8c4.6,4.1,9.6,6.8,11.9,5.8c37.6-23.5,52.8-41.3,72.1-60.7
							L354.8,287.7z"/>
					</g>
				</g>
			</g>
		</g>
		<path d="M157.2,816c14.9,23.3,55.6,11.9,52.5,42.1c-60.6-3.9-85.8-5-85.8-5c0.5-6.9,2.7-23.4,4.4-29.8L157.2,816z"/>
	</g>
	<g>
		
			<ellipse transform="matrix(0.1226 -0.9925 0.9925 0.1226 -70.802 631.4812)" class="st10" cx="321.7" cy="355.8" rx="128.9" ry="128.9"/>
		<path class="st11" d="M450.6,355.1c-0.3-70.9-57.9-128.2-128.9-128.2v128.2H450.6z"/>
		<path class="st5" d="M321.7,355.1l51.7,118.7c45.4-19.9,77.2-65.3,77.2-118.1c0-0.2,0-0.4,0-0.6l0,0H321.7z"/>
	</g>
	<g>
		<path class="st12" d="M253.5,349.3c5.7-1.9,9.3-3.2,9.7-3.3c6.9-0.4,12.5-1.5,17.5-2.8c4.9-1.4,8.9-3.1,12.5-4.8l12-4
			c1.3-0.4,1.9-1.8,1.4-3.2c-0.5-1.4-2-2.1-3.3-1.6c0,0-10,2.8-11.2,2.8c0.6-0.5,15.8-6.1,15.8-6.1c1.3-0.4,1.9-1.9,1.4-3.2
			c-0.5-1.4-2-2.1-3.3-1.7c0,0-14.6,4.4-15.8,4.4c0.8-0.7,16.2-6.5,16.2-6.5c1.3-0.4,1.9-1.9,1.4-3.2c-0.5-1.4-2-2.1-3.3-1.7
			c0,0-16.9,5.1-17,4.9c-0.1-0.3,14-5.5,14-5.5c1.3-0.4,1.9-1.9,1.4-3.2c-0.5-1.4-2-2.1-3.3-1.7l-15,4.9c-0.2-0.2-15.3,5.1-17.7,2.4
			c-1.7-2-2.7-7.9-5.1-9.7c-0.8-0.6-2.8-1.3-2.8-0.2c0.2,3.1,1.6,11.4-1.2,17.2c-0.9,1.9-1.2,4.3-1.3,6.6c-2.1,0.3-5.1,0.7-8.7,1.2
			L253.5,349.3z"/>
		<g>
			<g>
				<path class="st3" d="M253.7,328c-0.3,0.1-31,6.7-60.8,16.4c-8.9-15.9-36.7-55.9-40.1-60.7c-11.9-16.9,3.6-33.7-5.5-35.1
					c-8.3-3.8-38.2,11.6-46.8,24C82.3,299.3,80,364.4,77.8,398.4c-1.7,26.5,5.1,105.8,6.3,108.7c6,13.9,29.4,18.2,34,11.3
					c5.8-8.7,10-18.9,12.5-28.9c4.5-18.4,8.1-37.5,11.8-56.2c3.8-19.3,4.3-46.5,4.3-72.2c7.4,8.2,14,15.6,19.1,21.2
					c3.5,5.1,7.6,8.9,10.1,8.5c42.2-13.6,61.3-27.1,84.8-41.2L253.7,328z"/>
			</g>
		</g>
	</g>
</g>
</svg>
