<?xml version="1.0" encoding="utf-8"?>
<!-- Generator: Adobe Illustrator 23.0.5, SVG Export Plug-In . SVG Version: 6.00 Build 0)  -->
<svg version="1.1" id="Слой_1" xmlns="http://www.w3.org/2000/svg" xmlns:xlink="http://www.w3.org/1999/xlink" x="0px" y="0px"
	 viewBox="0 0 1399.1 882.5" style="enable-background:new 0 0 1399.1 882.5;" xml:space="preserve">
<style type="text/css">
	.st0{fill:#ECB7AE;}
	.st1{fill-rule:evenodd;clip-rule:evenodd;fill:#E3ECFF;}
	.st2{fill:url(#SVGID_1_);}
	.st3{fill:#E3ECFF;}
	.st4{fill:#4061AE;}
	.st5{fill:#A2A1F3;}
	.st6{fill:#0E4F4B;}
	.st7{fill:#2C66B0;}
	.st8{fill:#5090CE;}
	.st9{fill:#C1C1F9;}
	.st10{fill:#FFFFFF;}
	.st11{fill:#CDCDFC;}
	.st12{fill:#BFCDE8;}
	.st13{fill:#62C1C6;}
	.st14{fill:#CBD9F9;}
	.st15{fill:#463D94;}
	.st16{fill:#203A72;}
	.st17{fill:#BF6075;}
	.st18{fill:#FAD1BB;}
	.st19{fill:#2F2E41;}
	.st20{fill-rule:evenodd;clip-rule:evenodd;}
	.st21{fill-rule:evenodd;clip-rule:evenodd;fill:#A2A1F3;}
</style>
<g>
	<path class="st0" d="M304.3,492.4c4.1,2.5,6.6,4.1,6.9,4.2c3.7,4,7.2,6.9,10.5,9.2c3.3,2.3,6.4,3.9,9.2,5.2l8.5,5.3
		c0.9,0.6,2.1,0.3,2.7-0.8c0.6-1,0.3-2.3-0.7-2.8c0,0-6.7-4.7-7.3-5.4c0.6,0.1,11.6,6.5,11.6,6.5c0.9,0.6,2.1,0.2,2.7-0.8
		c0.6-1,0.3-2.3-0.6-2.9c0,0-10-6.7-10.7-7.4c0.8,0.2,12.1,6.6,12.1,6.6c0.9,0.6,2.1,0.2,2.7-0.8c0.6-1,0.3-2.3-0.7-2.9
		c0,0-11.6-7.7-11.6-7.9c0.1-0.2,10.4,5.7,10.4,5.7c0.9,0.6,2.1,0.2,2.7-0.8c0.6-1,0.3-2.3-0.6-2.8c0,0-13.1-9.6-25.3-10.1
		c-1.6-0.1-7.9-6.5-9.3-5.4c-1.2-1.1-3-2.8-5.1-4.7L304.3,492.4z"/>
	<path class="st1" d="M353.9,528.7h-93.7h-2.5c-53.7,0-97.7,40.2-97.7,89.2l0,0c0,49.1,43.9,89.2,97.7,89.2h390.3h49.1h509.7
		c87,0,158.1-65,158.1-144.5l0,0c0-79.5-71.2-144.5-158.1-144.5l0,0c-36.8,0-66.9-27.5-66.9-61.1l0,0c0-33.6,30.1-61.1,66.9-61.1
		h59.3c38.2,0,69.5-28.6,69.5-63.5l0,0c0-34.9-31.3-63.5-69.5-63.5h-80.6c-14.9,0-27.1-11.1-27.1-24.7v0c0-13.6,12.2-24.7,27.1-24.7
		h17.9c10.3,0,18.7-7.7,18.7-17.1l0,0c0-9.4-8.4-26.5-18.7-26.5h-67.2c0,0-25.7,0-50.5,0c-24.8,0-27.6,38.5-90.2,38.5
		c-96.8,0-83.6,0-180.4,0c-13.4,0-66.2-4.2-66.2,48.3c0,58.3,42.9,63.3,26.2,108.4s-200.3,66.7-200.3,66.7H430
		c-29.3,0-53.2,21.9-53.2,48.6l-8.5,4.2c0,26.7,32.5,44.4,61.8,44.4h13.2c28.2,0-38.1,21-38.1,46.8l0,0
		C405.1,507.7,382.1,528.7,353.9,528.7L353.9,528.7z"/>
	<linearGradient id="SVGID_1_" gradientUnits="userSpaceOnUse" x1="37.9725" y1="712.527" x2="1399.1023" y2="712.527">
		<stop  offset="0" style="stop-color:#151D81"/>
		<stop  offset="0.1191" style="stop-color:#131B6D"/>
		<stop  offset="0.2983" style="stop-color:#101857"/>
		<stop  offset="0.4923" style="stop-color:#0E1647"/>
		<stop  offset="0.71" style="stop-color:#0D143D"/>
		<stop  offset="1" style="stop-color:#0D143A"/>
	</linearGradient>
	<rect x="38" y="706.2" class="st2" width="1361.1" height="12.6"/>
	<ellipse class="st3" cx="173.8" cy="755.1" rx="173.8" ry="24.1"/>
	<ellipse class="st3" cx="1130.6" cy="861.5" rx="238" ry="21"/>
	<g>
		<g>
			<path class="st3" d="M278.8,196.4h-3.7v3.7v42.7v3.7h3.7h29.1c1.7,5.9,4,11.5,7,16.9l-20.5,20.5l-2.6,2.6l2.6,2.6l30.2,30.2
				l2.6,2.6l2.6-2.6l20.6-20.6c5.1,2.7,10.4,4.9,16,6.6v28.6v3.7h3.7h42.7h3.7v-3.7v-28.6c5.2-1.6,10.3-3.6,15.2-6.2l20.2,20.2
				l2.6,2.6l2.6-2.6L487,289l2.6-2.6l-2.6-2.6l-19.7-19.7c2.9-5.2,5.3-10.8,7-16.5h28.2h3.7V244v-42.7v-3.7h-3.7h-27.9
				c-1.8-6.1-4.3-12.1-7.4-17.7l19.7-19.7l2.6-2.6L487,155l-30.2-30.2l-2.6-2.6l-2.6,2.6L431.4,145c-5.2-2.7-10.7-4.9-16.4-6.5
				v-28.3v-3.7h-3.7h-42.7H365v3.7v29c-5.1,1.6-10,3.7-14.7,6.2l-20.6-20.6l-2.6-2.6l-2.6,2.6L294.3,155l-2.6,2.6l2.6,2.6l20.5,20.5
				c-2.7,5-4.9,10.3-6.6,15.7L278.8,196.4L278.8,196.4z M345.7,222c0-25.1,20.4-45.5,45.5-45.5c25.1,0,45.5,20.4,45.5,45.5
				s-20.4,45.5-45.5,45.5C366.2,267.5,345.7,247.1,345.7,222z"/>
		</g>
		<g>
			<path class="st3" d="M485.8,110h-2.3v2.3v27v2.3h2.3h18.4c1.1,3.7,2.6,7.3,4.4,10.7l-13,13l-1.6,1.6l1.6,1.6l19.1,19.1l1.6,1.6
				l1.6-1.6l13-13c3.2,1.7,6.6,3.1,10.1,4.2v18.1v2.3h2.3h27h2.3v-2.3v-18.1c3.3-1,6.5-2.3,9.6-3.9l12.7,12.7l1.6,1.6l1.6-1.6
				l19.1-19.1l1.6-1.6l-1.6-1.6l-12.5-12.5c1.8-3.3,3.3-6.8,4.4-10.4h17.8h2.3V140v-27v-2.3h-2.3h-17.6c-1.1-3.9-2.7-7.6-4.7-11.2
				l12.5-12.5l1.6-1.6l-1.6-1.6l-19.1-19.1l-1.6-1.6l-1.6,1.6l-12.7,12.7c-3.3-1.7-6.8-3.1-10.3-4.1V55.5v-2.3h-2.3h-27h-2.3v2.3
				v18.3c-3.2,1-6.3,2.3-9.3,3.9l-13-13l-1.6-1.6l-1.6,1.6l-19.1,19.1l-1.6,1.6l1.6,1.6l13,13c-1.7,3.2-3.1,6.5-4.2,9.9L485.8,110
				L485.8,110z M528.1,126.2c0-15.8,12.9-28.7,28.7-28.7s28.7,12.9,28.7,28.7c0,15.8-12.9,28.7-28.7,28.7S528.1,142,528.1,126.2z"/>
		</g>
	</g>
	<g>
		<g>
			<g>
				<rect x="1175.4" y="642.3" class="st4" width="62.5" height="12.6"/>
				<rect x="1202.3" y="724.6" class="st4" width="62.5" height="12.6"/>
				<rect x="1218.2" y="797.6" class="st4" width="75.2" height="12.6"/>
				<rect x="1154.4" y="557.1" class="st4" width="53.2" height="12.6"/>
				<rect x="1127.9" y="475.2" class="st4" width="53.2" height="9.4"/>
				<polygon class="st4" points="1240.4,860.1 1143.4,475.2 1124.5,475.2 1220.9,860.1 				"/>
				<polygon class="st4" points="967,860.1 1094.4,475.2 1077,475.2 950.5,860.1 				"/>
				<path class="st4" d="M998.6,735.6L998.6,735.6c0,3.5,2.8,6.3,6.3,6.3h56.8c3.5,0,6.3-2.8,6.3-6.3l0,0c0-3.5-2.8-6.3-6.3-6.3
					h-56.8C1001.4,729.3,998.6,732.1,998.6,735.6z"/>
				<path class="st4" d="M973.8,816.5L973.8,816.5c0,3.5,2.8,6.3,6.3,6.3h56.8c3.5,0,6.3-2.8,6.3-6.3l0,0c0-3.5-2.8-6.3-6.3-6.3
					h-56.8C976.6,810.2,973.8,813,973.8,816.5z"/>
				<path class="st4" d="M1025.9,652.2L1025.9,652.2c0,3.5,2.8,6.3,6.3,6.3h56.8c3.5,0,6.3-2.8,6.3-6.3l0,0c0-3.5-2.8-6.3-6.3-6.3
					h-56.8C1028.7,646,1025.9,648.8,1025.9,652.2z"/>
				<path class="st4" d="M1053.4,565.9L1053.4,565.9c0,3.5,2.8,6.3,6.3,6.3h53.2c3.5,0,6.3-2.8,6.3-6.3v0c0-3.5-2.8-6.3-6.3-6.3
					h-53.2C1056.2,559.6,1053.4,562.5,1053.4,565.9z"/>
				<path class="st4" d="M1129.2,475.2h-47.2c-1.8,1.1-3,3.1-3,5.3c0,3.5,2.8,6.3,6.3,6.3h40.6c3.5,0,6.3-2.8,6.3-6.3
					C1132.2,478.3,1131,476.3,1129.2,475.2z"/>
				<polygon class="st4" points="1050,860.1 1144,475.2 1123.5,475.2 1025.3,860.1 				"/>
				<polygon class="st4" points="1322.4,860.1 1193.6,475.2 1173.3,475.2 1300.2,860.1 				"/>
			</g>
			<polygon class="st4" points="1099.2,475.2 1099.2,486.8 1197.5,486.8 1193.6,475.2 			"/>
		</g>
	</g>
	<g id="XMLID_576_">
		<path id="XMLID_577_" class="st3" d="M419.9,403.3h-11c-0.8-2.7-1.9-5.3-3.2-7.7l7.7-7.7l-15-15h0l-7.7,7.7
			c-2.4-1.3-5-2.4-7.7-3.2v-11h-21.2v11c-2.7,0.8-5.3,1.9-7.7,3.2l-7.7-7.7l-15,15l7.7,7.7c-1.3,2.4-2.4,5-3.2,7.7h-11v21.2h11
			c0.8,2.7,1.9,5.3,3.2,7.7l-7.7,7.7l15,15l7.7-7.7c2.4,1.3,5,2.4,7.7,3.2v11h21.2v-11c2.7-0.8,5.3-1.9,7.7-3.2l7.7,7.7h0l15-15
			l-7.8-7.7c1.3-2.4,2.4-5,3.2-7.7h11V403.3z M382.7,429.2c-17.6,9.9-35.5-8.1-25.6-25.6c1.2-2.2,3-4,5.2-5.2
			c17.6-9.9,35.5,8.1,25.6,25.6C386.7,426.2,384.9,428,382.7,429.2z"/>
	</g>
	<g>
		<g>
			<g>
				<g>
					<path class="st0" d="M1119.4,338.9l30.8-4l-5.6,115.1c-9.5,6.1-21.7,1.3-20.1,0.5C1124.1,442.1,1121.3,391.8,1119.4,338.9z"/>
				</g>
			</g>
		</g>
		<path class="st5" d="M1153.8,467.8c-0.1-0.4-6.1-25.6-6.6-27.6c-0.8,0.6-15.4,6.3-25.2,4c-0.2,0-0.4-0.1-0.5-0.2
			c-7.5,5.2-14.7,9.7-14.7,9.7s-18.6,4.9-19.5,5.6c-1,0.6-3.4,1.6-5.9,5.2c0,0-1.8,6.6,21.9,10.5c0,0,10.3,2.6,26.4-1.6
			c3.5-0.6,7-1.1,10.5-1.7C1143.7,471.1,1154.5,470,1153.8,467.8z"/>
		<g>
			<g>
				<g>
					<g>
						<path class="st0" d="M1186.1,338.9l30.8-4l-5.6,115.1c-9.5,6.1-21.7,1.3-20.1,0.5C1190.7,442.1,1188,391.8,1186.1,338.9z"/>
					</g>
				</g>
			</g>
			<g>
				<g>
					<g>
						<path class="st6" d="M1216.5,236.7c5.5,46.5,2.4,194.8,2.4,194.8l-33.3,5.9l-21.9-151.1l-11.4,142.9l-32.1,0.8l-17.1-187.3
							c18.6,6.1,38.8,9.4,60,9.4C1183.9,252.1,1198.2,242.5,1216.5,236.7z"/>
						<path class="st4" d="M1099.9,117.7c-12.3-33,19.7-38.4,32.6-41.8c8.6-2.3,25.5-8.6,34.3-9c11.4-0.5,12.2,7.3,18,17.2
							c9.4,16,21.3,38,23.3,51.2c3.4,22.5,16.5,120.9,16.4,123.3c-18.9,3.2-39.4,2.1-59.9-0.8c-21-3-47.7-2.6-65.3-11.2l28.5-70.3
							C1127.8,176.3,1105.2,131.8,1099.9,117.7z"/>
					</g>
				</g>
			</g>
		</g>
		<path class="st5" d="M1220.5,467.8c-0.1-0.4-6.1-25.6-6.6-27.6c-0.8,0.6-15.4,6.3-25.2,4c-0.2,0-0.4-0.1-0.5-0.2
			c-7.5,5.2-14.7,9.7-14.7,9.7s-18.6,4.9-19.5,5.6c-1,0.6-3.4,1.6-5.9,5.2c0,0-1.8,6.6,21.9,10.5c0,0,10.3,2.6,26.4-1.6
			c3.5-0.6,7-1.1,10.5-1.7C1210.4,471.1,1221.2,470,1220.5,467.8z"/>
		<path class="st4" d="M1073.5,127.4l43.7,21.4l14.4-27.7l-6.6-28.6c0,0-15.9-5.3-24.9-0.4S1073.5,127.4,1073.5,127.4z"/>
	</g>
	<g>
		<rect x="594" y="638.7" class="st7" width="189" height="50.9"/>
		<path class="st8" d="M1007.8,655.3H371.2c-5.2,0-9.4-4.2-9.4-9.4V193.2c0-5.2,4.2-9.4,9.4-9.4h636.6c5.2,0,9.4,4.2,9.4,9.4v452.7
			C1017.2,651.1,1013,655.3,1007.8,655.3z"/>
		<path class="st9" d="M991.2,610.1H385.9c-3.2,0-5.8-2.6-5.8-5.8V206.8c0-3.2,2.6-5.8,5.8-5.8h605.2c3.2,0,5.8,2.6,5.8,5.8v397.5
			C996.9,607.5,994.3,610.1,991.2,610.1z"/>
		<polygon class="st8" points="849.7,715.9 527.4,715.9 527.4,686.5 849.7,686.5 849.7,686.5 		"/>
		<g>
			<g>
				<g>
					<g>
						<path class="st10" d="M953.3,593.4H426c-14,0-25.3-11.1-25.3-24.9V236.9c0-13.7,11.3-24.9,25.3-24.9h527.3
							c14,0,25.3,11.1,25.3,24.9v331.6C978.6,582.2,967.3,593.4,953.3,593.4z"/>
					</g>
				</g>
			</g>
			<path class="st5" d="M953.3,212.1H426c-14,0-25.3,11.1-25.3,24.9v21.8h577.9v-21.8C978.6,223.2,967.3,212.1,953.3,212.1z"/>
			<path class="st11" d="M904.3,236.2c0,4-3.3,7.2-7.3,7.2s-7.3-3.2-7.3-7.2c0-4,3.3-7.2,7.3-7.2S904.3,232.3,904.3,236.2z"/>
			<path class="st11" d="M934,236.2c0,4-3.3,7.2-7.3,7.2c-4,0-7.3-3.2-7.3-7.2c0-4,3.3-7.2,7.3-7.2C930.8,229.1,934,232.3,934,236.2
				z"/>
			<path class="st11" d="M963.8,236.2c0,4-3.3,7.2-7.3,7.2c-4,0-7.3-3.2-7.3-7.2c0-4,3.3-7.2,7.3-7.2
				C960.5,229.1,963.8,232.3,963.8,236.2z"/>
		</g>
		<path class="st12" d="M427.8,581.4l58.7-0.1l-0.6-306.5l-68.9,0.1l0.6,294.3C417.6,576,422.2,581.4,427.8,581.4z"/>
		<polygon class="st12" points="505.3,275.6 505.6,418.2 948.8,417.3 948.5,277.4 		"/>
		<path class="st10" d="M479.2,561.7l-50.4,0.1c-0.6,0-1-0.5-1-1l0-5.6c0-0.6,0.5-1,1-1l50.4-0.1c0.6,0,1,0.5,1,1l0,5.6
			C480.2,561.3,479.7,561.7,479.2,561.7z"/>
		<path class="st12" d="M651.7,473.9H507.8c-0.6,0-1-0.5-1-1l0-5.6c0-0.6,0.5-1,1-1h143.9c0.6,0,1,0.5,1,1l0,5.6
			C652.8,473.5,652.3,473.9,651.7,473.9z"/>
		<path class="st12" d="M651.7,456.9H507.8c-0.6,0-1-0.5-1-1l0-5.6c0-0.6,0.5-1,1-1h143.9c0.6,0,1,0.5,1,1l0,5.6
			C652.8,456.5,652.3,456.9,651.7,456.9z"/>
		<path class="st12" d="M651.7,440H507.8c-0.6,0-1-0.5-1-1l0-5.6c0-0.6,0.5-1,1-1h143.9c0.6,0,1,0.5,1,1l0,5.6
			C652.8,439.5,652.3,440,651.7,440z"/>
		<path class="st10" d="M472.7,336.6l-41.5,0.1c-2.8,0-5.1-2.3-5.1-5.1l-0.1-41.5c0-2.8,2.3-5.1,5.1-5.1l41.5-0.1
			c2.8,0,5.1,2.3,5.1,5.1l0.1,41.5C477.8,334.3,475.5,336.6,472.7,336.6z"/>
		<path class="st12" d="M948.1,576.5L689.7,577c-0.7,0-1.3-0.6-1.3-1.3l0-7.4c0-0.7,0.6-1.3,1.3-1.3l258.4-0.5
			c0.7,0,1.3,0.6,1.3,1.3l0,7.4C949.4,575.9,948.8,576.5,948.1,576.5z"/>
		<path class="st12" d="M948.1,554.3l-258.4,0.5c-0.7,0-1.3-0.6-1.3-1.3l0-7.4c0-0.7,0.6-1.3,1.3-1.3l258.4-0.5
			c0.7,0,1.3,0.6,1.3,1.3l0,7.4C949.4,553.7,948.8,554.3,948.1,554.3z"/>
		<path class="st12" d="M948.1,532.2l-258.4,0.5c-0.7,0-1.3-0.6-1.3-1.3l0-7.4c0-0.7,0.6-1.3,1.3-1.3l258.4-0.5
			c0.7,0,1.3,0.6,1.3,1.3l0,7.4C949.4,531.6,948.8,532.2,948.1,532.2z"/>
		<path class="st12" d="M948.1,510l-258.4,0.5c-0.7,0-1.3-0.6-1.3-1.3l0-7.4c0-0.7,0.6-1.3,1.3-1.3L948,500c0.7,0,1.3,0.6,1.3,1.3
			l0,7.4C949.4,509.4,948.8,510,948.1,510z"/>
		<path class="st12" d="M948.1,487.8l-258.4,0.5c-0.7,0-1.3-0.6-1.3-1.3l0-7.4c0-0.7,0.6-1.3,1.3-1.3l258.4-0.5
			c0.7,0,1.3,0.6,1.3,1.3l0,7.4C949.4,487.2,948.8,487.8,948.1,487.8z"/>
		<path class="st12" d="M948.1,465.6l-258.4,0.5c-0.7,0-1.3-0.6-1.3-1.3l0-7.4c0-0.7,0.6-1.3,1.3-1.3l258.4-0.5
			c0.7,0,1.3,0.6,1.3,1.3l0,7.4C949.4,465,948.8,465.6,948.1,465.6z"/>
		<path class="st12" d="M948.1,443.5L689.7,444c-0.7,0-1.3-0.6-1.3-1.3l0-7.4c0-0.7,0.6-1.3,1.3-1.3l258.4-0.5
			c0.7,0,1.3,0.6,1.3,1.3l0,7.4C949.4,442.9,948.8,443.5,948.1,443.5z"/>
		<polygon class="st12" points="655.7,581 505,581.3 504.8,486.2 655.5,485.9 655.5,485.9 655.7,581 		"/>
		<path class="st10" d="M475.1,344.7l-44.9,0.1c-0.3,0-0.5-0.2-0.5-0.5l0-2.8c0-0.3,0.2-0.5,0.5-0.5l44.9-0.1c0.3,0,0.5,0.2,0.5,0.5
			l0,2.8C475.6,344.5,475.4,344.7,475.1,344.7z"/>
		<path class="st10" d="M475.1,352.8l-44.9,0.1c-0.3,0-0.5-0.2-0.5-0.5l0-2.8c0-0.3,0.2-0.5,0.5-0.5l44.9-0.1c0.3,0,0.5,0.2,0.5,0.5
			l0,2.8C475.6,352.5,475.4,352.8,475.1,352.8z"/>
		<path class="st10" d="M567,293.5l-44.9,0.1c-0.3,0-0.5-0.2-0.5-0.5l0-2.8c0-0.3,0.2-0.5,0.5-0.5l44.9-0.1c0.3,0,0.5,0.2,0.5,0.5
			l0,2.8C567.5,293.2,567.3,293.5,567,293.5z"/>
		<path class="st10" d="M567,308.7l-44.9,0.1c-0.3,0-0.5-0.2-0.5-0.5l0-2.8c0-0.3,0.2-0.5,0.5-0.5l44.9-0.1c0.3,0,0.5,0.2,0.5,0.5
			l0,2.8C567.5,308.5,567.3,308.7,567,308.7z"/>
		<path class="st10" d="M567,324l-44.9,0.1c-0.3,0-0.5-0.2-0.5-0.5l0-2.8c0-0.3,0.2-0.5,0.5-0.5l44.9-0.1c0.3,0,0.5,0.2,0.5,0.5
			l0,2.8C567.5,323.8,567.3,324,567,324z"/>
		<path class="st10" d="M701.7,366.3l-44.9,0.1c-0.3,0-0.5-0.2-0.5-0.5l0-2.8c0-0.3,0.2-0.5,0.5-0.5l44.9-0.1c0.3,0,0.5,0.2,0.5,0.5
			l0,2.8C702.2,366,702,366.3,701.7,366.3z"/>
		<path class="st10" d="M701.7,381.5l-44.9,0.1c-0.3,0-0.5-0.2-0.5-0.5l0-2.8c0-0.3,0.2-0.5,0.5-0.5l44.9-0.1c0.3,0,0.5,0.2,0.5,0.5
			l0,2.8C702.2,381.3,702,381.5,701.7,381.5z"/>
		<path class="st10" d="M701.7,396.8l-44.9,0.1c-0.3,0-0.5-0.2-0.5-0.5l0-2.8c0-0.3,0.2-0.5,0.5-0.5l44.9-0.1c0.3,0,0.5,0.2,0.5,0.5
			l0,2.8C702.2,396.6,702,396.8,701.7,396.8z"/>
		<rect x="718.2" y="336.7" class="st10" width="61.9" height="61.9"/>
		<rect x="519.7" y="336.7" class="st10" width="123.9" height="61.9"/>
		<rect x="792.6" y="336.7" class="st10" width="61.9" height="61.9"/>
		<rect x="867" y="336.7" class="st10" width="61.9" height="61.9"/>
		<path class="st3" d="M943,386.8c5.9,7.8,8.1,18.2,5.1,28.3c-5,16.9-22.7,26.5-39.6,21.5c-16.9-5-26.5-22.7-21.5-39.6
			c1.1-3.8,2.9-7.3,5.2-10.3l-76.1-0.2l0.2-76.5c2.8,2.1,6.1,3.7,9.6,4.7c16.9,5,34.6-4.7,39.6-21.5c5-16.9-4.7-34.6-21.5-39.6
			c-9.8-2.9-19.9-0.9-27.6,4.7l0.1-53.5c0-11.8,9.6-21.4,21.4-21.3l160.4,0.4c11.8,0,21.4,9.6,21.3,21.4l-0.5,181.8L943,386.8z"/>
	</g>
	<g>
		<path class="st8" d="M1135.7,120.8h-4.9l5.1,0C1135.9,120.8,1135.8,120.8,1135.7,120.8z"/>
		<path class="st13" d="M976.2,120.4c-1.4,0-2.8,0.1-4.2,0.4h158.8L976.2,120.4z"/>
		<g>
			<path class="st8" d="M955.1,138h168.8c7.5,0,13.5,6.1,13.5,13.5V324l19.9,0.1l0.4-140.8v-40.3c0-12.1-9.7-21.9-21.8-22l-5.1,0
				H972C963.4,122.5,956.6,129.3,955.1,138z"/>
			<path class="st9" d="M1123.9,138H955.1c-0.2,1.2-0.4,2.5-0.4,3.7l0,7.3h139.1c14,0,25.3,11.1,25.3,24.9v21.8v128.2l18.3,0V151.5
				C1137.5,144.1,1131.4,138,1123.9,138z"/>
			<path class="st10" d="M1004.2,214.1l84.8,0.3l0.2,109.4l29.9,0.1V195.7H992.2C998.3,200.2,1002.5,206.8,1004.2,214.1z"/>
			<path class="st10" d="M1039.7,370.5l32.3-0.1c6.1-3.6,11-9.2,13.6-16.2l-59.6,0.1C1028.6,361.1,1033.3,366.8,1039.7,370.5z"/>
			<path class="st5" d="M982.2,190.6c3.7,1.1,7.1,2.9,10.1,5.1h126.9v-21.8c0-13.7-11.3-24.9-25.3-24.9H954.7l-0.1,46.2
				C962.3,189.7,972.4,187.7,982.2,190.6z M1097,166.1c4,0,7.3,3.2,7.3,7.2c0,4-3.3,7.2-7.3,7.2c-4,0-7.3-3.2-7.3-7.2
				C1089.7,169.3,1093,166.1,1097,166.1z M1067.3,166.1c4,0,7.3,3.2,7.3,7.2c0,4-3.3,7.2-7.3,7.2c-4,0-7.3-3.2-7.3-7.2
				C1060,169.3,1063.2,166.1,1067.3,166.1z M1037.5,166.1c4,0,7.3,3.2,7.3,7.2c0,4-3.3,7.2-7.3,7.2c-4,0-7.3-3.2-7.3-7.2
				C1030.2,169.3,1033.5,166.1,1037.5,166.1z"/>
			<path class="st11" d="M1037.5,180.4c4,0,7.3-3.2,7.3-7.2c0-4-3.3-7.2-7.3-7.2c-4,0-7.3,3.2-7.3,7.2
				C1030.2,177.2,1033.5,180.4,1037.5,180.4z"/>
			<path class="st11" d="M1067.3,180.4c4,0,7.3-3.2,7.3-7.2c0-4-3.3-7.2-7.3-7.2c-4,0-7.3,3.2-7.3,7.2
				C1060,177.2,1063.2,180.4,1067.3,180.4z"/>
			<path class="st11" d="M1097,180.4c4,0,7.3-3.2,7.3-7.2c0-4-3.3-7.2-7.3-7.2c-4,0-7.3,3.2-7.3,7.2
				C1089.7,177.2,1093,180.4,1097,180.4z"/>
			<path class="st14" d="M1003.7,230.2c-5,16.9-22.7,26.5-39.6,21.5c-3.6-1.1-6.8-2.7-9.6-4.7l-0.1,26.7H995v49.9l12.5,0v-49.9h61.9
				v61.9h-44.6c-1.6,6.5-1,13,1.2,18.9l59.6-0.1c0.3-0.7,0.6-1.5,0.8-2.2c3-10.1,0.7-20.5-5.1-28.3l8.1,0l-0.2-109.4l-84.8-0.3
				C1005.4,219.2,1005.3,224.8,1003.7,230.2z"/>
			<path class="st14" d="M1046.7,373.6c8.8,2.6,17.9,1.2,25.2-3.2l-32.3,0.1C1041.8,371.8,1044.2,372.9,1046.7,373.6z"/>
			<polygon class="st10" points="954.4,273.7 954.3,323.5 995,323.6 995,273.7 			"/>
			<path class="st10" d="M1069.4,273.7h-61.9v49.9l22.9,0.1c-2.3,3-4.1,6.5-5.2,10.3c-0.2,0.5-0.2,1-0.4,1.6h44.6V273.7z"/>
		</g>
	</g>
	<g>
		<path class="st0" d="M1118.2,225c-2.1-1.1-10.5,3.6-8.7-1.4c1.5-4.1,14-6,18.2-6.6c3.1-3.4,30.1-29,56-58.4
			c-8.6-24.1-19-36.7-24-48.4c-2.4-5.6-2.8-22.8-3.5-26.6c-2.2-12.9,10.9-21.3,21.7-13.7c4.2,3,8.7,8,12.5,16.3
			c4.2,9.1,23.3,57.2,18.5,75.9c-6.4,25-52.4,56-74.7,65.6l0-0.1c0,0-3.6,7.1-4.8,7.9c-17.6,10.7-23.7,1.7-23.7,1.7L1118.2,225z"/>
	</g>
	<path class="st4" d="M1208.8,111l-50.5,13.7l-11.4-29.1l-0.9-22.9c0,0,18-14.9,40.1,0.2C1194.5,78.6,1208.8,111,1208.8,111z"/>
	<g>
		<path class="st0" d="M1142.4,51.9c1.6,6.1,3,16.3,5.1,17.5s4.5-0.1,4.5-0.1s2.4,16-15.3,21.9c-7.3,2.4-27.9-7-22.7-9.2
			c5.2-2.1,10.2-4,9.4-6.8c-0.7-2.8-1.5-5.5-2.2-8.3"/>
	</g>
	<g>
		<path class="st0" d="M1147.2,47.7c-0.1,3.5-0.4,7.1-1,10.6c-1,6.4-3.9,9.3-10.2,10.7c-4.4,1-8.7,2.3-13.2,3.1
			c-12.1,2.3-19.4-17-20.7-21.1c-2.7-8.1-4.8-16.3-6.4-24.7c-0.2-1.1-0.4-2.3-0.4-3.5c0-0.5,0-1,0.3-1.4c0.3-0.5,0.9-0.7,1.5-0.9
			c8.9-3.4,16-5.3,24.7-6.9c5.9-1.1,12.4-1.7,17.8,0.9c5.5,2.6,9,8.1,12.1,13.3c0.5,0.8,1,2,0.3,2.7"/>
	</g>
	<g>
		<path class="st15" d="M1152.5,20.6c-0.8-2.3-1.7-4.5-2.7-6.6c-2.8-5.7-7.5-10-13.6-11.8c-7.8-2.3-17.8-3.6-25,0.1
			c-4.2,2.2-5.3,4.9-7.6,5.3c-1.8,0.3-9.3,1-11.5,2c-20.8,9.7-1.5,22.2,1.3,26.5c1.2,1.9,5.7,3.5,5.7,3.5s-1.1-5.5-1.1-6.2
			c-0.2-2,0-4.1,1.5-5.6c1.5-1.6,3.9-2.3,5.9-3.1c2.1-0.8,12.4-1,13.2-0.6c3.8,2.1,6,8.2,7.7,11.8c0.8,1.6,11.3,19.7,13.4,21.1
			c0.7,0.5,1.4,0.9,2.1,1.2c0.7,0.2,1.5,0.3,2.2,0.3c0.9,0.1,1.7,0.1,2.6,0.2c1.2,0.1,2.4,0.1,3.5-0.4c1.7-0.9,2.3-3,2.7-4.9
			c0.8-3.1,1.7-6.1,2.2-9.3C1156.1,36.5,1155.1,28.1,1152.5,20.6z"/>
	</g>
	<path class="st15" d="M1096.4,28.5c0,0,6.1,6.9,15,6.3c8.9-0.5,22.3-7.1,22.3-7.1l-11.9-5.8c0,0-16.4-1.6-16.7-1.5
		C1104.6,20.5,1096.4,28.5,1096.4,28.5z"/>
	
		<ellipse transform="matrix(5.395036e-02 -0.9985 0.9985 5.395036e-02 1026.4865 1168.4567)" class="st0" cx="1129.9" cy="42.5" rx="7.1" ry="4.6"/>
	<path class="st3" d="M437.2,453.1c-5.9-7.7-8.3-18.1-5.4-28.2c4.9-16.9,22.5-26.7,39.5-21.9s26.7,22.5,21.9,39.5
		c-1.1,3.9-2.9,7.3-5.1,10.4l76.1-0.4l0.4,76.5c-2.9-2-6.1-3.6-9.7-4.7c-16.9-4.9-34.6,4.9-39.5,21.9c-4.9,16.9,4.9,34.6,21.9,39.5
		c9.8,2.8,19.9,0.7,27.5-4.9l0.3,53.5c0.1,11.8-9.5,21.4-21.3,21.5l-160.4,0.8c-11.8,0.1-21.4-9.5-21.5-21.3L361,453.5L437.2,453.1z
		"/>
	<g>
		<path class="st8" d="M484.2,677.7l-0.1-24.1H312.8c-7.5,0-13.5-6.1-13.5-13.5V496.9L281,497v161.6l0.1,20.1c0,0.1,0,0.2,0,0.4
			c1.2,11.1,10.5,19.7,21.9,19.7h163.5C476.6,697.1,484.3,688.3,484.2,677.7z"/>
		<path class="st9" d="M345.1,636.9c-14,0-25.3-11.1-25.3-24.9V496.8l-20.5,0.1v143.2c0,7.5,6.1,13.5,13.5,13.5h171.3l-0.1-16.7
			H345.1z"/>
		<path class="st10" d="M345.1,636.9H484l-0.1-12.2l-0.8,0c-7.6,5.2-17.3,7.1-26.8,4.4c-3.3-1-6.4-2.4-9.1-4.3l-23.1,0l-0.2-95
			l59.5-0.1l-0.1-12.2h-55c-1.3,0-2.4-1.1-2.4-2.4l0-2.9c0-1.3,1.1-2.4,2.4-2.4h55l0-9.3h-55c-1.3,0-2.4-1.1-2.4-2.4l0-1.8
			l-18.8,0.1c2.3-3,4-6.5,5.1-10.4c3.2-11,0.1-22.3-7-30.2l0.3,169l-58.7,0.1c-5.7,0-10.3-5.4-10.3-12.1l-0.2-116.1l-16.6,0.1V612
			C319.8,625.8,331.1,636.9,345.1,636.9z"/>
		<path class="st12" d="M390.4,446.5c-16.9-4.9-34.6,4.9-39.5,21.9c-2.9,10.1-0.6,20.5,5.4,28.2l-19.9,0.1l0.2,116.1
			c0,6.7,4.6,12.2,10.3,12.1l58.7-0.1l-0.3-169C401.4,451.6,396.4,448.2,390.4,446.5z M396.9,605.2l-47.6,0.1
			c-1.3,0-2.4-1.1-2.4-2.4l0-2.9c0-1.3,1.1-2.4,2.4-2.4l47.6-0.1c1.3,0,2.4,1.1,2.4,2.4l0,2.9C399.3,604.2,398.2,605.2,396.9,605.2z
			"/>
		<path class="st10" d="M396.9,597.6l-47.6,0.1c-1.3,0-2.4,1.1-2.4,2.4l0,2.9c0,1.3,1.1,2.4,2.4,2.4l47.6-0.1c1.3,0,2.4-1.1,2.4-2.4
			l0-2.9C399.3,598.6,398.2,597.6,396.9,597.6z"/>
		<path class="st12" d="M428.3,509.8c-1.3,0-2.4,1.1-2.4,2.4l0,2.9c0,1.3,1.1,2.4,2.4,2.4h55l0-7.7H428.3z"/>
		<path class="st12" d="M425.9,496.2l0,1.8c0,1.3,1.1,2.4,2.4,2.4h55l0-4.5L425.9,496.2z"/>
		<path class="st12" d="M434.5,589.6c4.9-16.9,22.5-26.7,39.5-21.9c3.6,1,6.8,2.6,9.7,4.7l-0.2-42.7l-59.5,0.1l0.2,95l23.1,0
			C436.2,617.2,430.6,603.2,434.5,589.6z"/>
	</g>
	<rect x="1021.3" y="469" class="st4" width="232.2" height="17.6"/>
	<g>
		<g>
			<g>
				<path class="st16" d="M207.1,491.5c-1,1.5-21.3,3.1-12.1,86.6c1.2,10.6,11.3,80.9,11.3,80.9l-2,85.5c0,0,23,1.7,23.2,1.2
					c7.4-25.3,26.1-105.1,21.6-200.4c-1.8-37-9.1-65.4-9.1-65.4"/>
			</g>
		</g>
		<g>
			<g>
				<g>
					<path class="st4" d="M161.8,500.2c-0.6,0.9-11.9,38.3-12.2,55.1c-0.8,44.6,3.1,76.3,3.1,76.3L114,735c0,0,11.8,6.6,16.4,6.6
						c76.7-80.2,79.6-129.4,81.6-191.1c1.2-37,1-65.3,1-65.3"/>
				</g>
			</g>
		</g>
		<g>
			<path class="st0" d="M216.6,362c0,0,20.2,0,36.6,28.7c11.9,20.9,13.5,36.6,18.7,42.9c13.2,16,55.9,56.8,55.9,56.8l-22,2.8
				c0,0-29.4-7.9-64.8-41.9c-22.9-22-32.4-49.1-32.4-49.1"/>
		</g>
		<g>
			<path class="st17" d="M212,362.1l6.7,0.4c0,0,16,15.9,18.9,26c8.7,29.8,10.9,102.6,12.5,131.7c0.3,4.7-23.9,18.9-33.5,21.7
				c-17.1,5-71.1,7-71.1,7s-4.2-31-4.2-40.6c-0.1-10.1,0.2-13,0.8-23c1.8-30.3,5.9-60.5,11.7-90.3c0.3-1.5,0.6-2.9,0.9-4.4
				c2.1-4.1,24.1-28.2,24.1-28.2l13.5-1.1L212,362.1z"/>
		</g>
		<g>
			<g>
				<path class="st0" d="M139.7,452.8c3.8-8.9,27.4-37.3,31-39.7c5.1-3.4,8-6.4,12.2-11.2c11.8-13.3,13.1-38-0.3-39.3
					c-27.3-2.6-75.5,51.6-76.2,90.2c-0.6,34.3,41.1,74.6,47.2,78.5c0,0,12.5-3.3,11.2-5.9C163.5,522.9,137.1,458.9,139.7,452.8z"/>
			</g>
		</g>
	</g>
	<path class="st17" d="M167.4,421.9l-41.7-22.6c0,0,23.2-37.3,39.9-38.8c16.7-1.5,36.1,5.6,36.1,5.6l-15.3,43.7L167.4,421.9z"/>
	<path class="st17" d="M205.8,362.5c0,0,22.9-5.6,33.8,2.3c10.9,7.9,18.5,27.6,18.5,27.6l-20.6,15.3L205.8,362.5z"/>
	<path class="st0" d="M329.1,494.1c0,0,10.6,9.9,16,10.8c5.4,0.9,1-7.7-5.4-11.3C333.2,490,329.1,494.1,329.1,494.1z"/>
	<path class="st0" d="M151.2,528.4c2.6,3.2,4.3,5.2,4.5,5.4c1.9,4.3,4,7.7,6,10.6c2.1,2.8,4.1,5,6.1,6.9l5.5,6.8
		c0.6,0.8,1.7,0.8,2.4,0.1c0.7-0.7,0.9-1.8,0.3-2.5c0,0-4.2-5.8-4.5-6.5c0.4,0.3,7.7,8.7,7.7,8.7c0.6,0.7,1.7,0.8,2.4,0.1
		c0.8-0.7,0.9-1.8,0.3-2.5c0,0-6.3-8.4-6.7-9.1c0.6,0.4,8.1,8.9,8.1,8.9c0.6,0.7,1.7,0.8,2.4,0.1c0.7-0.7,0.9-1.8,0.3-2.5
		c0,0-7.3-9.6-7.2-9.8c0.2-0.1,6.9,7.6,6.9,7.6c0.6,0.7,1.7,0.8,2.4,0.1c0.8-0.7,0.9-1.8,0.3-2.5l-6.8-8.4c0.1-0.1-7-8.6-5.8-10.8
		c0.9-1.6,4.4-3.6,5-5.6c0.2-0.7,0.2-2.1-0.5-1.8c-1.9,0.9-6.9,3.8-11.4,3.4c-1.4-0.1-3.1,0.3-4.5,0.8c-0.7-1.3-1.7-3.1-2.9-5.3
		L151.2,528.4z"/>
	<path class="st18" d="M213.8,340.2l-0.7,28.7c-0.3,9.7-10.6,12.8-15.7,13.3c-8.1,0.8-14.2-6.6-15-14.7l-2-31.3L213.8,340.2z"/>
	<path class="st18" d="M197.2,353.4l13.5,0.5c10.1,0.4,18.5-7.8,18.6-17.9l0-28c0-12.7-10-23.1-22.7-23.6l0,0
		c-13-0.4-26.2,9.7-26.6,22.7l0.4,29.2C180.5,345.5,187.9,353.1,197.2,353.4z"/>
	<path class="st19" d="M189.1,284.6c-1.4,0.1-2.4,0.7-6.9,1.6c-9.5,1.8-8.7,10.4-8.7,10.4s-1.1,8.1,0.5,10.3
		c2.5,3.5,2.9,25.7,6.5,29.9c1.5,1.8,3.9-13.4,3.9-13.4l0.1-17.6l15-13.3L189.1,284.6z"/>
	<path class="st19" d="M180,315.6c0,0,7.2,11.2,9.2-3.2c1.9-13.2,16.4-5.5,20.8-4.5c7.5,1.7,18.2,1.4,22.8-9.8
		c6.3-15.6,1.3-18.7-9.2-22.8c-7.4-2.9-22.3-1.7-27.8-0.7c-3.6,0.7-14.8,5.2-15.7,5.9l7.1,20.1L180,315.6z"/>
	<path class="st19" d="M185,322.9c0,0,0.7,15.6,19.2,18.9c2.1,0.4,22.7-2.8,24.1-4.6l1-1c0,14.6-11.1,26.5-24.7,26.5h0
		c-13.6,0-24.7-11.8-24.7-26.5l3.2-30.4L185,322.9z"/>
	
		<ellipse transform="matrix(0.9791 -0.2031 0.2031 0.9791 -61.4649 44.1535)" class="st18" cx="184.4" cy="321.5" rx="6.2" ry="9.5"/>
	<path class="st20" d="M219.2,738c0,0,3.7-2.5,7.7-1.5c4,1,27,11.9,30.7,13.4c3.7,1.5,7.6,7.2,4.7,10.4c-2.9,3.3-22.4,2.9-32.7,0.8
		c-10.3-2-18.3-0.7-22.1-0.4c-3.8,0.3-8.2-7.9-4.6-19.8C206.6,729.1,205.5,740.1,219.2,738z"/>
	<path class="st21" d="M262.9,755.5c0.6,1.7,0.6,3.5-0.6,4.8c-1.6,1.8-8.3,2.5-15.6,2.4c-16.9-0.2-22.4,0-41.3,0
		c-3.1,0-2.8-5-3.6-10.3c2.8,3.9,7.7,4.2,17,3.5c9.6-0.8,18.5,1.8,30.7,2.9C258,759.6,261.5,757.1,262.9,755.5z"/>
	<path class="st20" d="M130.3,729.2c0,0,4.3-1.2,7.7,1.1c3.4,2.3,21.7,20,24.8,22.6c3,2.6,4.9,9.2,1.1,11.4
		c-3.8,2.1-22.1-4.5-31.2-9.7c-9.1-5.3-17.1-6.5-20.8-7.5c-3.7-1-5.2-10.2,2.1-20.2C121.3,716.8,116.7,726.8,130.3,729.2z"/>
	<path class="st21" d="M166.1,759.9c0,1.8-0.6,3.5-2.1,4.4c-2.1,1.2-8.6-0.3-15.6-2.8c-16-5.6-21.2-7.2-39.1-13.3
		c-2.9-1-1.1-5.6,0-10.9c1.4,4.6,5.9,6.5,15,8.8c9.4,2.4,16.9,7.6,28.1,12.6C160.1,762.2,164.3,760.9,166.1,759.9z"/>
	
		<rect x="1281.7" y="354" transform="matrix(0.7377 0.6752 -0.6752 0.7377 584.8973 -776.7261)" class="st3" width="20.5" height="20.5"/>
	
		<rect x="1327.6" y="399.6" transform="matrix(0.905 -0.4255 0.4255 0.905 -46.1262 606.4768)" class="st3" width="13.7" height="13.7"/>
	
		<rect x="262.5" y="302.7" transform="matrix(0.905 -0.4255 0.4255 0.905 -106.1181 144.0276)" class="st3" width="13.7" height="13.7"/>
	
		<rect x="455.7" y="74.2" transform="matrix(0.2748 -0.9615 0.9615 0.2748 257.4842 503.5462)" class="st3" width="13.7" height="13.7"/>
	
		<rect x="423.9" y="16.3" transform="matrix(0.8305 -0.557 0.557 0.8305 56.8396 250.005)" class="st3" width="30.6" height="30.6"/>
	
		<rect x="1344.1" y="332" transform="matrix(0.9944 0.1057 -0.1057 0.9944 44.678 -142.1009)" class="st3" width="36.6" height="36.6"/>
	
		<rect x="280.8" y="346.1" transform="matrix(0.9944 0.1057 -0.1057 0.9944 40.2068 -29.585)" class="st3" width="36.6" height="36.6"/>
	
		<rect x="742.2" y="85.2" transform="matrix(-0.9987 -5.066945e-02 5.066945e-02 -0.9987 1499.1332 228.8555)" class="st3" width="20.5" height="20.5"/>
	
		<rect x="685.9" y="83.1" transform="matrix(-0.4266 0.9044 -0.9044 -0.4266 1069.7224 -498.1633)" class="st3" width="13.7" height="13.7"/>
	
		<rect x="688.8" y="132.8" transform="matrix(-0.8339 0.5518 -0.5518 -0.8339 1380.1643 -113.1237)" class="st3" width="36.6" height="36.6"/>
</g>
</svg>
