<?xml version="1.0" encoding="utf-8"?>
<!-- Generator: Adobe Illustrator 23.0.5, SVG Export Plug-In . SVG Version: 6.00 Build 0)  -->
<svg version="1.1" id="Слой_1" xmlns="http://www.w3.org/2000/svg" xmlns:xlink="http://www.w3.org/1999/xlink" x="0px" y="0px"
	 viewBox="0 0 1432.4 864.6" style="enable-background:new 0 0 1432.4 864.6;" xml:space="preserve">
<style type="text/css">
	.st0{fill:url(#SVGID_1_);}
	.st1{fill:url(#SVGID_2_);}
	.st2{fill:url(#SVGID_3_);}
	.st3{fill:url(#SVGID_4_);}
	.st4{fill:#7EC18C;}
	.st5{fill:#61AA9D;}
	.st6{fill-rule:evenodd;clip-rule:evenodd;fill:#A6C86B;}
	.st7{fill-rule:evenodd;clip-rule:evenodd;fill:#5F9850;}
	.st8{fill:url(#SVGID_5_);}
	.st9{fill-rule:evenodd;clip-rule:evenodd;fill:#203A72;}
	.st10{fill-rule:evenodd;clip-rule:evenodd;fill:#2C66B0;}
	.st11{fill-rule:evenodd;clip-rule:evenodd;fill:#725FE9;}
	.st12{fill-rule:evenodd;clip-rule:evenodd;fill:#FFFFFF;}
	.st13{fill-rule:evenodd;clip-rule:evenodd;fill:#00000F;}
	.st14{fill:#101537;}
	.st15{fill:#FFFFFF;}
	.st16{fill:#725FE9;}
	.st17{fill:#E9AC2E;}
	.st18{fill:#141827;}
	.st19{fill:#DCF3FF;}
	.st20{fill:#282A30;}
	.st21{fill:#ACDEE6;}
	.st22{fill:#ECB7AE;}
	.st23{fill:#0E4F4B;}
	.st24{fill:#4061AE;}
	.st25{fill:#1B2147;}
	.st26{fill:#F5D8D8;}
	.st27{fill:#DF5C5B;}
	.st28{fill:url(#SVGID_6_);}
	.st29{fill:url(#SVGID_7_);}
	.st30{fill:#463D94;}
	.st31{fill:#6991F0;}
	.st32{fill:#29459F;}
	.st33{fill:#3157E6;}
	.st34{fill:url(#SVGID_8_);}
</style>
<g>
	<g>
		<linearGradient id="SVGID_1_" gradientUnits="userSpaceOnUse" x1="652.9098" y1="154.3897" x2="755.2094" y2="697.2038">
			<stop  offset="0" style="stop-color:#E5E4FD"/>
			<stop  offset="0.2926" style="stop-color:#CDD3F6"/>
			<stop  offset="0.747" style="stop-color:#AEBCED"/>
			<stop  offset="1" style="stop-color:#A2B3EA"/>
		</linearGradient>
		<path class="st0" d="M1375.5,677.1c-36.2,36.4-80.8,64.9-129.5,83.3c-7.9,3-15.9,5.6-23.9,8.1c-7.8,2.3-15.6,4.4-23.4,6.2H147.2
			c-15.8,0-30.1-0.7-40.7-2c-2.7-3.1-5.3-6.2-7.7-9.3c-63-77.3-69-142.9-70.9-186.2c-7.2-158.8,22.1-237.7,197.7-324
			c85.3-41.9,389.3-26.7,442.8-91.6C774.7,32.5,939.6-19.6,1087.2,22.1c157.1,44.3,207.7,151.1,188.8,258.2
			c-11.5,65.5,120.6,136.9,144.9,201.9C1446.6,550.8,1427.9,624.3,1375.5,677.1z"/>
	</g>
	<linearGradient id="SVGID_2_" gradientUnits="userSpaceOnUse" x1="602.2819" y1="787.004" x2="602.2819" y2="869.7303">
		<stop  offset="0" style="stop-color:#AFAEB6"/>
		<stop  offset="0.2121" style="stop-color:#9598A3"/>
		<stop  offset="0.7461" style="stop-color:#576475"/>
		<stop  offset="1" style="stop-color:#3F5063"/>
	</linearGradient>
	<ellipse class="st1" cx="602.3" cy="816.4" rx="97.9" ry="14.9"/>
	<linearGradient id="SVGID_3_" gradientUnits="userSpaceOnUse" x1="952.4299" y1="749.8155" x2="952.4299" y2="880.0674">
		<stop  offset="0" style="stop-color:#AFAEB6"/>
		<stop  offset="0.2121" style="stop-color:#9598A3"/>
		<stop  offset="0.7461" style="stop-color:#576475"/>
		<stop  offset="1" style="stop-color:#3F5063"/>
	</linearGradient>
	<ellipse class="st2" cx="952.4" cy="796.1" rx="154.1" ry="23.4"/>
	<linearGradient id="SVGID_4_" gradientUnits="userSpaceOnUse" x1="202.5094" y1="801.1249" x2="202.5094" y2="919.799">
		<stop  offset="0" style="stop-color:#AFAEB6"/>
		<stop  offset="0.2121" style="stop-color:#9598A3"/>
		<stop  offset="0.7461" style="stop-color:#576475"/>
		<stop  offset="1" style="stop-color:#3F5063"/>
	</linearGradient>
	<ellipse class="st3" cx="202.5" cy="843.3" rx="154.1" ry="21.3"/>
	<g>
		<path class="st4" d="M201.2,672.1c-14.7-33.7-44.7-58.3-76.5-76.6c-26.6-15.2-56.1-27.1-86.7-26.9c-9.6,0.1-19.6,1.5-27.4,7.1
			c-7.8,5.5-12.8,16-9.5,25c2.8,7.6,10.4,12.2,17.8,15.5c24.4,10.7,51.4,13.1,77.7,17.7c45.1,7.8,91.3,23.7,121.4,58.2"/>
		<path class="st5" d="M176,649.1c-0.4,0-0.8-0.2-1.2-0.5c-42-41.4-116.8-62.2-155.6-53.3c-0.9,0.2-1.8-0.4-2-1.2
			c-0.2-0.9,0.4-1.8,1.2-2c39.6-9.2,115.9,12.1,158.7,54.1c0.7,0.6,0.7,1.7,0,2.4C176.9,648.9,176.5,649.1,176,649.1z"/>
	</g>
	<g>
		<path class="st6" d="M133.5,406.3c9.1,21.6,25.6,71.7,44,123.6c-1.4,19.8-8.6,35.9-19.8,45.8c-31.1-51.1-60.4-108.9-74.7-153
			C55,336.4,98.8,324.1,133.5,406.3z"/>
		<path class="st7" d="M169,561.4c-45.8-85.2-76.3-184.6-76.5-185c-0.3-0.9,0-1.8,0.6-1.9c0.6-0.1,1.3,0.6,1.6,1.5
			c0.1,0.4,30.3,98.6,75.5,183C169.8,559.9,169.4,560.7,169,561.4z"/>
	</g>
	<g>
		<path class="st6" d="M671.7,282.4c9.1,21.6,25.6,71.7,44,123.6c-1.4,19.8-8.6,35.9-19.8,45.8c-31.1-51.1-60.4-108.9-74.7-153
			C593.3,212.5,637,200.2,671.7,282.4z"/>
		<path class="st7" d="M707.2,437.6c-45.8-85.2-76.3-184.6-76.5-185c-0.3-0.9,0-1.8,0.6-1.9c0.6-0.1,1.3,0.6,1.6,1.5
			c0.1,0.4,30.3,98.6,75.5,183C708,436,707.6,436.8,707.2,437.6z"/>
	</g>
	<g>
		<path class="st6" d="M120,473.1c21.3,23.5,64.7,80.2,111.3,138.4c7,26.1,5,50.1-5,68.1c-62.5-51.2-125.8-111.9-163.7-161.9
			C-11.6,419.7,39,383.5,120,473.1z"/>
		<path class="st7" d="M234.4,655.9C137.8,567.7,54.5,454.2,54.2,453.8c-0.8-1.1-0.8-2.3-0.1-2.7c0.7-0.4,2,0.1,2.7,1.2
			c0.3,0.5,82.7,112.6,178,200C234.7,653.5,234.6,654.7,234.4,655.9z"/>
	</g>
	<g>
		<path class="st4" d="M1213.3,674.7c6.2-36.2,29.3-67.3,55.9-92.7c22.1-21.2,47.9-39.8,77.7-46.9c9.3-2.2,19.4-3.2,28.3,0.3
			c8.9,3.5,16.3,12.5,15.2,22c-0.9,8-7.2,14.3-13.6,19.3c-21.1,16.3-46.8,25.1-71.2,35.8c-41.9,18.4-82.9,45-103.9,85.7"/>
		<path class="st5" d="M1231.8,646.4c-0.3,0-0.6-0.1-0.9-0.2c-0.8-0.5-1-1.5-0.5-2.3c31.4-51.1,100.3-90.1,141-90.7
			c0.9,0,1.7,0.7,1.7,1.6c0,0.9-0.7,1.7-1.6,1.7c-39.8,0.6-107.3,38.9-138.2,89.1C1232.9,646.1,1232.4,646.4,1231.8,646.4z"/>
	</g>
	<g>
		<path class="st4" d="M1230.2,528.8c-10-35.3-2.5-73.4,10.6-107.7c10.9-28.6,26.1-56.6,50-75.8c7.5-6,16.1-11.2,25.7-12
			c9.6-0.7,20.1,4.3,23.2,13.3c2.6,7.6-0.3,16.1-4,23.3c-12.1,23.8-31.4,42.8-48.8,63c-29.9,34.7-55.5,76.3-57,122"/>
		<path class="st5" d="M1234.1,495.4c-0.1,0-0.1,0-0.2,0c-0.9-0.1-1.6-0.9-1.5-1.8c6.4-59.7,51.9-124.4,88.3-142.5
			c0.8-0.4,1.8-0.1,2.2,0.8c0.4,0.8,0.1,1.8-0.8,2.2c-35.7,17.7-80.2,81.2-86.5,139.9C1235.6,494.8,1234.9,495.4,1234.1,495.4z"/>
	</g>
	<g>
		<path class="st6" d="M1240.1,347.4c-3.7,23.2-7.7,75.7-13,130.6c6.1,18.9,16.9,32.8,30.2,39.7c17.9-57.1,32.5-120.2,35.7-166.5
			C1299.5,260.6,1254,259.2,1240.1,347.4z"/>
		<path class="st7" d="M1243,506.5c24-93.7,29.8-197.5,29.8-197.9c0.1-1-0.4-1.7-1-1.7c-0.6,0-1.2,0.9-1.2,1.8
			c0,0.4-5.7,103-29.3,195.8C1241.8,505.2,1242.4,505.8,1243,506.5z"/>
	</g>
	<g>
		<path class="st6" d="M1286.3,449.6c-20,24.6-60.3,83.5-103.8,144.2c-5.6,26.5-2.3,50.3,8.6,67.7C1250.9,607,1310.8,543.1,1346,491
			C1414.9,389.2,1362.4,355.8,1286.3,449.6z"/>
		<path class="st7" d="M1181.9,638.3c91.7-93.2,168.8-211,169.1-211.5c0.7-1.1,0.7-2.3-0.1-2.7c-0.8-0.4-2,0.2-2.7,1.3
			c-0.3,0.5-76.5,116.9-167.1,209.3C1181.5,636,1181.7,637.2,1181.9,638.3z"/>
	</g>
	<g>
		<path class="st4" d="M660.1,549.7c-0.2-29.7-14.2-59.1-37-78.1c-16.9-14-38-22.5-53.8-37.7c-16.6-16-26.1-39.1-25.6-62.2
			s11.1-45.7,28.5-60.9c13.2-11.6,31.4-18.9,48.4-14.6c9.3,2.3,17.5,8,24.2,14.8c6.2,6.3,11,13.6,14.8,21.4
			c8.6,17.9,11.4,39,10.8,59.1c-0.5,18.3,5.8,51.3,10.4,73.1c2.8,12.8,5,21.7,5,21.7C687.7,503.2,663.2,533,660.1,549.7z"/>
		<path class="st5" d="M662.5,497.1c-0.7,0-1.2-0.5-1.3-1.2c-8.7-60.4-45-120.5-71.6-160.5c-0.4-0.6-0.2-1.5,0.4-1.9
			c0.6-0.4,1.5-0.2,1.9,0.4c26.7,40.2,63.3,100.7,72.1,161.6c0.1,0.7-0.4,1.4-1.1,1.5C662.7,497.1,662.6,497.1,662.5,497.1z"/>
	</g>
	<linearGradient id="SVGID_5_" gradientUnits="userSpaceOnUse" x1="673.1097" y1="761.6966" x2="673.1097" y2="801.351">
		<stop  offset="0" style="stop-color:#AFAEB6"/>
		<stop  offset="0.2121" style="stop-color:#9598A3"/>
		<stop  offset="0.7461" style="stop-color:#576475"/>
		<stop  offset="1" style="stop-color:#3F5063"/>
	</linearGradient>
	<path class="st8" d="M1302.2,775.8c0,2-6.3,3.7-16.6,5c-10.2,1.3-24.4,2.1-40,2.1h-1145c-15.1,0-28.9-0.7-39-2
		c-10.9-1.3-17.6-3.1-17.6-5.2c0-1.5,3.8-2.9,10.2-4.1c1.9-0.3,4-0.7,6.4-1c10.2-1.3,24.4-2.1,40-2.1h1145
		C1276.9,768.7,1302.2,771.8,1302.2,775.8z"/>
	<g>
		<path class="st9" d="M972.6,181.4L972.6,181.4c173.5,0,314.2,140.7,314.2,314.2c0,173.5-140.7,314.2-314.2,314.2
			c-6.3,0-12.5-0.2-18.7-0.6h-19.5v-1.7c-155.5-18.9-275.9-151.3-275.9-311.8c0-160.6,120.5-293,275.9-311.8v-2.3H972.6z"/>
		
			<ellipse transform="matrix(0.7071 -0.7071 0.7071 0.7071 -74.0725 808.1888)" class="st10" cx="938.5" cy="493.5" rx="314.2" ry="314.2"/>
		<path class="st11" d="M938.5,766.6c150.4,0,273.1-122.7,273.1-273.1c0-150.4-122.7-273.1-273.1-273.1
			c-150.4,0-273.1,122.7-273.1,273.1C665.4,643.9,788.1,766.6,938.5,766.6z"/>
		<circle class="st12" cx="938.5" cy="493.5" r="250.1"/>
		<path class="st13" d="M938.5,299.5c-4,0-7.3-3.3-7.3-7.3v-12.8c0-4,3.3-7.3,7.3-7.3c4,0,7.3,3.3,7.3,7.3v12.8
			C945.9,296.3,942.6,299.5,938.5,299.5L938.5,299.5z M938.5,714.9c-4,0-7.3-3.3-7.3-7.3v-12.8c0-4,3.3-7.3,7.3-7.3
			c4,0,7.3,3.3,7.3,7.3v12.8C945.9,711.6,942.6,714.9,938.5,714.9L938.5,714.9z M1035.5,325.5c-3.5-2-4.7-6.5-2.7-10l6.4-11.1
			c2-3.5,6.5-4.7,10-2.7c3.5,2,4.7,6.5,2.7,10l-6.4,11.1C1043.5,326.3,1039,327.6,1035.5,325.5L1035.5,325.5z M827.8,685.2
			c-3.5-2-4.7-6.5-2.7-10l6.4-11.1c2-3.5,6.5-4.7,10-2.7c3.5,2,4.7,6.5,2.7,10l-6.4,11.1C835.8,686.1,831.3,687.3,827.8,685.2
			L827.8,685.2z M1106.5,396.5c-2-3.5-0.8-8,2.7-10l11.1-6.4c3.5-2,8-0.8,10,2.7c2,3.5,0.8,8-2.7,10l-11.1,6.4
			C1113,401.2,1108.5,400,1106.5,396.5L1106.5,396.5z M746.8,604.2c-2-3.5-0.8-8,2.7-10l11.1-6.4c3.5-2,8-0.8,10,2.7
			c2,3.5,0.8,8-2.7,10l-11.1,6.4C753.3,608.9,748.8,607.7,746.8,604.2L746.8,604.2z M1132.5,493.5c0-4,3.3-7.3,7.3-7.3h12.8
			c4,0,7.3,3.3,7.3,7.3c0,4-3.3,7.3-7.3,7.3h-12.8C1135.8,500.8,1132.5,497.5,1132.5,493.5L1132.5,493.5z M717.1,493.5
			c0-4,3.3-7.3,7.3-7.3h12.8c4,0,7.3,3.3,7.3,7.3c0,4-3.3,7.3-7.3,7.3h-12.8C720.4,500.8,717.1,497.5,717.1,493.5L717.1,493.5z
			 M1106.5,590.5c2-3.5,6.5-4.7,10-2.7l11.1,6.4c3.5,2,4.7,6.5,2.7,10c-2,3.5-6.5,4.7-10,2.7l-11.1-6.4
			C1105.7,598.5,1104.5,594,1106.5,590.5L1106.5,590.5z M746.8,382.8c2-3.5,6.5-4.7,10-2.7l11.1,6.4c3.5,2,4.7,6.5,2.7,10
			c-2,3.5-6.5,4.7-10,2.7l-11.1-6.4C746,390.8,744.8,386.3,746.8,382.8L746.8,382.8z M1035.5,661.5c3.5-2,8-0.8,10,2.7l6.4,11.1
			c2,3.5,0.8,8-2.7,10c-3.5,2-8,0.8-10-2.7l-6.4-11.1C1030.8,668,1032,663.5,1035.5,661.5L1035.5,661.5z M827.8,301.8
			c3.5-2,8-0.8,10,2.7l6.4,11.1c2,3.5,0.8,8-2.7,10c-3.5,2-8,0.8-10-2.7l-6.4-11.1C823.1,308.3,824.3,303.8,827.8,301.8z"/>
	</g>
	<g>
		<path class="st14" d="M923,529.6c-2.2-5.7,0.7-12,6.3-14.1l166.3-63.6c5.7-2.2,12,0.7,14.1,6.3c2.2,5.7-0.7,12-6.3,14.1
			l-166.3,63.6C931.5,538,925.2,535.2,923,529.6z"/>
	</g>
	<g>
		<path class="st14" d="M824.3,433.1c-0.8-3.7,0.4-7.7,3.4-10.4c4.5-4.1,11.4-3.7,15.5,0.8l89.1,98.9c4,4.5,3.7,11.4-0.8,15.5
			c-4.5,4.1-11.4,3.7-15.5-0.8l-89.1-98.9C825.5,436.7,824.7,434.9,824.3,433.1z"/>
	</g>
	<path class="st14" d="M959.4,540.9c-6.2,19.5-27,30.3-46.6,24.2c-19.5-6.2-30.3-27-24.2-46.6c6.2-19.5,27-30.3,46.6-24.2
		C954.8,500.5,965.6,521.3,959.4,540.9z"/>
	<path class="st15" d="M949.8,537.8c-4.5,14.2-19.7,22.1-33.8,17.6c-14.2-4.5-22.1-19.7-17.6-33.8c4.5-14.2,19.7-22.1,33.8-17.6
		C946.4,508.5,954.3,523.6,949.8,537.8z"/>
	<path class="st14" d="M937.7,534c-2.4,7.5-10.4,11.7-18,9.3c-7.5-2.4-11.7-10.4-9.3-18c2.4-7.5,10.4-11.7,18-9.3
		C935.9,518.4,940.1,526.5,937.7,534z"/>
	<g>
		<rect x="150" y="432.4" class="st16" width="426.2" height="347.3"/>
		<rect x="165.9" y="432.4" class="st16" width="426.2" height="347.3"/>
		<rect x="152.1" y="426.1" class="st15" width="426.2" height="347.3"/>
		<g>
			<rect x="274.7" y="493.8" class="st17" width="44.6" height="44.6"/>
			<rect x="337.9" y="493.8" class="st17" width="44.6" height="44.6"/>
			<rect x="401.1" y="493.8" class="st17" width="44.6" height="44.6"/>
			<rect x="464.2" y="493.8" class="st17" width="44.6" height="44.6"/>
			<rect x="274.7" y="555.7" class="st17" width="44.6" height="44.6"/>
			<rect x="211.6" y="555.7" class="st17" width="44.6" height="44.6"/>
			<rect x="337.9" y="555.7" class="st17" width="44.6" height="44.6"/>
			<rect x="401.1" y="555.7" class="st17" width="44.6" height="44.6"/>
			<rect x="464.2" y="555.7" class="st17" width="44.6" height="44.6"/>
			<rect x="274.7" y="614.5" class="st17" width="44.6" height="44.6"/>
			<rect x="211.6" y="614.5" class="st17" width="44.6" height="44.6"/>
			<rect x="337.9" y="614.5" class="st17" width="44.6" height="44.6"/>
			<rect x="401.1" y="614.5" class="st17" width="44.6" height="44.6"/>
			<rect x="464.2" y="614.5" class="st17" width="44.6" height="44.6"/>
			<rect x="274.7" y="676.5" class="st17" width="44.6" height="44.6"/>
			<rect x="211.6" y="676.5" class="st17" width="44.6" height="44.6"/>
			<rect x="337.9" y="676.5" class="st17" width="44.6" height="44.6"/>
			<rect x="401.1" y="676.5" class="st17" width="44.6" height="44.6"/>
			<rect x="464.2" y="676.5" class="st17" width="44.6" height="44.6"/>
		</g>
		<path class="st16" d="M591.6,389.7v53.9H150v-53.9c0-7.7,9.4-14,21-14h399.5C582.2,375.7,591.6,382,591.6,389.7z"/>
		<path class="st15" d="M245.3,411.6c0,14.6-11.8,26.4-26.4,26.4c-14.6,0-26.4-11.8-26.4-26.4c0-14.6,11.8-26.4,26.4-26.4
			C233.5,385.1,245.3,397,245.3,411.6z"/>
	</g>
	<g>
		<polygon class="st18" points="420.1,595.8 400.7,568.8 409.3,562.5 420.3,577.9 449,540 457.5,546.4 		"/>
	</g>
	<g>
		<polygon class="st18" points="420.4,716.6 401,689.5 409.7,683.3 420.6,698.6 449.4,660.7 457.9,667.2 		"/>
	</g>
	<g>
		<polygon class="st18" points="290.7,598.8 271.3,571.7 280,565.5 290.9,580.9 319.7,543 328.2,549.4 		"/>
	</g>
	<g>
		<path class="st19" d="M661.9,637.2l-0.2-35.5l-126.5,0.4l0.2,30.5c0.1,23.5,13.7,58.5,39.2,64.7c2.6,0.7,9.5,7.7,9.5,10l0,0
			c0,2.3-1.8,29.6-4.5,30.3c-25.4,6.4-44,40.2-43.9,63.7l0.2,11.6l126.5-0.4l-0.2-11.6c-0.1-23.5-18.7-57.2-44.2-63.5
			c-2.6-0.7-4.5-27.9-4.5-30.2l0,0c0-2.3,5.6-9.4,8.2-10.1C647.2,690.8,662,660.8,661.9,637.2z"/>
		
			<rect x="528.4" y="590.4" transform="matrix(1 -3.175287e-03 3.175287e-03 1 -1.8839 1.9032)" class="st20" width="140" height="7.7"/>
		
			<rect x="532.5" y="598.1" transform="matrix(1 -3.175659e-03 3.175659e-03 1 -1.9024 1.9035)" class="st21" width="131.9" height="3.8"/>
		
			<rect x="529.2" y="809.6" transform="matrix(-1 3.174998e-03 -3.174998e-03 -1 1200.9043 1625.01)" class="st20" width="140" height="7.7"/>
		<path class="st17" d="M650.7,653.9l-0.1-17.5l-104.2,0.3l0.1,17.5c0.1,18.7,15.7,34.5,37.1,39.6c6.9,1.6,11.5,7.1,11.6,13.1
			c0,0,1.4,26.1-4.4,35.7c-5.7,9.4-27.1,10.6-43.2,40.2c-2.2,4.1-0.6,21.1-0.6,21.1l104.2-0.3c0,0,1.9-14.4-0.1-18.6
			c-13.3-27.9-38.6-32-44.3-41c-6.2-9.8-4.5-37.2-4.5-37.2c0-6,4.6-11.5,11.5-13.2C635.2,688.5,650.8,672.6,650.7,653.9z"/>
	</g>
	<g>
		<g>
			<g>
				<g>
					<g>
						<path class="st22" d="M253.7,738.9h-37.4l29.8,86.4c9.3,3.8,19.1-2.4,17.6-2.9C262.6,815.1,260.7,785.2,253.7,738.9z"/>
					</g>
				</g>
			</g>
			<g>
				<g>
					<g>
						<path class="st22" d="M157.2,735.1l-25.3-10.8L109,823.9c6.6,7.5,18.2,6.4,17,5.2C128.4,822.1,142.9,779.8,157.2,735.1z"/>
					</g>
				</g>
			</g>
			<g>
				<path class="st22" d="M261.9,614.1c-2,14-19.5,4-25.4,10.8c-4.2-7.4,5.2,1.2,5.4-7.3c0.2-12.3-0.6-47.8,0.6-58
					c1.5-13.1-11.4-12.3-10.2-19.7c1.4-8,8.8-18.1,11.8-21.6c7.5-9,22.5-1.2,23.6,10.3C268,531.9,262.6,608.8,261.9,614.1z"/>
				<g>
					<g>
						<path class="st23" d="M140.9,644.9c-4.8,41.2-34.8,160.4-34.8,160.4l27.5,10.1l59-138.3l40.8,134.3l35.2-7l-27.1-154.3
							c-16.5,5.4-34.4,8.4-53.2,8.4C169.8,658.5,157.1,650,140.9,644.9z"/>
						<path class="st24" d="M262.3,543.6c14.9-27.4-12.5-36.2-23.4-40.8c-7.2-3.1-21.3-10.7-29-12.2c-10-1.9-11.6,4.9-17.9,12.8
							c-10.3,12.8-23.4,30.7-26.8,42.1c-5.8,19.3-29.5,104-29.7,106.2c16.2,5.2,34.3,6.8,52.7,6.8c18.8,0,42.2,3.6,58.7-1.7
							l-16.3-65.2C230.6,591.5,255.9,555.3,262.3,543.6z"/>
					</g>
				</g>
				<g>
					<g>
						
							<rect x="186.3" y="466.8" transform="matrix(0.5588 -0.8293 0.8293 0.5588 -403.7361 437.0711)" class="st25" width="45.3" height="262.2"/>
						<g>
							<path class="st26" d="M363.7,705.2l-9.8-2.5L305,690l25.3-37.5l26.8,39.6l7.8,11.5C365.2,704.4,364.6,705.3,363.7,705.2z"/>
							<path class="st25" d="M363.7,705.2l-12.7-3.3c1.1-3.5,5-6.2,6-9.8l7.8,11.5C365.2,704.4,364.6,705.3,363.7,705.2z"/>
						</g>
						
							<rect x="79.3" y="519.9" transform="matrix(0.5588 -0.8293 0.8293 0.5588 -391.1297 316.5515)" class="st26" width="45.3" height="12"/>
						<path class="st27" d="M109.6,503.7l-25.3,37.5l-6.1-4.1c-9.2-6.2-11.7-18.7-5.4-28l2.8-4.1c6.2-9.2,18.7-11.7,28-5.4
							L109.6,503.7z"/>
					</g>
					<path class="st22" d="M233,635.5c2-0.7,8.8,4.4,7.8-0.1c-0.8-3.8-11.6-7-15.2-8c-2.3-3.4-22.8-29.2-41.9-58.2
						c10.5-20,21.2-29.9,27.1-39.5c2.8-4.6,5.3-19.7,6.4-22.9c3.5-11-6.9-20-17.4-14.7c-4.1,2.1-8.6,5.9-13,12.8
						c-4.8,7.5-27.6,47.3-25.7,64.3c2.5,22.8,39,55.7,57.4,66.8l0,0c0,0,2.3,6.7,3.2,7.5c1,0.8,3.5,1.3,3.5,1.3
						c3.3,2,4.8,0.9,4.8,0.9c2.8,1,5.2,0,5.2,0c4.3,2.9,7.1,2.3,7.1,2.3L233,635.5z"/>
				</g>
			</g>
		</g>
		
			<linearGradient id="SVGID_6_" gradientUnits="userSpaceOnUse" x1="-124.1412" y1="747.6051" x2="-62.9788" y2="747.6051" gradientTransform="matrix(-1.0222 -0.1637 1.235724e-02 1.3125 169.7374 -160.7536)">
			<stop  offset="0" style="stop-color:#151D81"/>
			<stop  offset="0.1191" style="stop-color:#131B6D"/>
			<stop  offset="0.2983" style="stop-color:#101857"/>
			<stop  offset="0.4923" style="stop-color:#0E1647"/>
			<stop  offset="0.71" style="stop-color:#0D143D"/>
			<stop  offset="1" style="stop-color:#0D143A"/>
		</linearGradient>
		<path class="st28" d="M245.2,847.7c0-0.3-1.8-23.3-1.9-25.1c0.8,0.3,14.7,1.1,22.3-3.5c0.1-0.1,0.3-0.2,0.4-0.3
			c7.7,2.3,15.1,4.2,15.1,4.2s17-0.9,18-0.6c1,0.3,3.3,0.5,6.4,2.8c0,0,3.3,5.1-15.7,14.8c0,0-8,5-22.7,5.8
			c-3.1,0.5-6.2,0.9-9.3,1.4C254.6,847.8,245.2,849.8,245.2,847.7z"/>
		
			<linearGradient id="SVGID_7_" gradientUnits="userSpaceOnUse" x1="-61.2131" y1="706.1481" x2="-5.069666e-02" y2="706.1481" gradientTransform="matrix(-0.7608 -0.702 -0.716 1.1 610.2928 44.8757)">
			<stop  offset="0" style="stop-color:#151D81"/>
			<stop  offset="0.1191" style="stop-color:#131B6D"/>
			<stop  offset="0.2983" style="stop-color:#101857"/>
			<stop  offset="0.4923" style="stop-color:#0E1647"/>
			<stop  offset="0.71" style="stop-color:#0D143D"/>
			<stop  offset="1" style="stop-color:#0D143A"/>
		</linearGradient>
		<path class="st29" d="M96.9,836.8c0.2-0.3,11.4-20.4,12.3-21.9c0.5,0.7,11.6,9.1,20.5,9.5c0.2,0,0.3,0,0.5,0
			c5.1,6.2,10.3,11.8,10.3,11.8s14.7,8.7,15.3,9.4c0.7,0.8,2.5,2.2,3.8,5.9c0,0,0,6.1-21.2,3.7c0,0-9.4-0.3-22.2-7.7
			c-2.9-1.3-5.7-2.7-8.6-4C104.7,842.1,95.7,838.5,96.9,836.8z"/>
		<path class="st24" d="M167.6,524.2l42.6,18.3l13.6-24.1l3.7-20c0,0-13.9-15.3-35.2-4.8C184.2,497.5,167.6,524.2,167.6,524.2z"/>
		<path class="st24" d="M273.4,561.6l-43.1-1.7l0.4-27.7l17.2-19.5c0,0,14.7,2.5,19.6,10.1C272.4,530.5,273.4,561.6,273.4,561.6z"/>
		<g>
			<path class="st22" d="M233.3,480.6c-2.2,5.1-4.6,13.9-6.6,14.7c-2,0.8-3.9-0.7-3.9-0.7s-4.1,13.7,10.7,21.1
				c6.1,3,25.4-2.7,21.1-5.2c-4.3-2.5-8.4-4.8-7.4-7.1c1-2.3,2-4.7,3-7"/>
		</g>
		<g>
			<path class="st22" d="M233.6,477.1c-0.3,2.9-0.5,5.7-0.4,8.6c0.1,5.3,2.1,7.9,7,9.8c3.4,1.3,6.8,2.8,10.2,4
				c9.5,3.2,17.5-11.4,19.1-14.6c3.1-6.2,5.7-12.6,8-19.1c0.3-0.9,0.6-1.8,0.7-2.7c0.1-0.4,0.1-0.8-0.1-1.1
				c-0.2-0.4-0.6-0.7-1.1-0.9c-6.8-3.7-12.3-6.1-19.1-8.3c-4.7-1.5-9.7-2.8-14.4-1.3c-4.7,1.5-8.1,5.5-11.3,9.3
				c-0.5,0.6-1,1.5-0.6,2.1"/>
		</g>
		<g>
			<path class="st30" d="M232.4,454.7c0.9-1.8,1.9-3.5,2.9-5c2.9-4.2,7.2-7.1,12.3-7.9c6.5-1,14.7-0.9,20.1,2.9
				c3.1,2.2,3.7,4.5,5.5,5.1c1.4,0.5,7.4,1.8,9,2.9c15.7,10.2-1.3,18.1-4.1,21.2c-1.2,1.4-5,2.1-5,2.1s1.5-4.3,1.6-4.9
				c0.4-1.6,0.4-3.3-0.5-4.7c-1-1.4-2.9-2.3-4.4-3.1c-1.6-0.9-9.9-2.2-10.5-2c-3.3,1.2-5.7,5.9-7.5,8.6
				c-0.8,1.2-11.3,14.5-13.2,15.4c-0.6,0.3-1.2,0.6-1.9,0.7c-0.6,0.1-1.2,0.1-1.8,0c-0.7-0.1-1.4-0.1-2.1-0.2c-1-0.1-2-0.2-2.7-0.7
				c-1.3-0.9-1.5-2.7-1.6-4.3c-0.3-2.6-0.7-5.1-0.7-7.7C227.7,467.2,229.6,460.5,232.4,454.7z"/>
		</g>
		<path class="st30" d="M276.7,467.5c0,0-5.7,4.8-12.8,3.4s-17.1-8.2-17.1-8.2l10.3-3.3c0,0,13.3,0.6,13.6,0.7
			S276.7,467.5,276.7,467.5z"/>
		
			<ellipse transform="matrix(8.671872e-02 -0.9962 0.9962 8.671872e-02 -246.5179 680.9678)" class="st22" cx="248.2" cy="474.9" rx="5.8" ry="3.8"/>
	</g>
	<path class="st31" d="M596.9,284.7c0.9,5.4-2.7,10.6-8.2,11.5c-5.4,0.9-10.6-2.7-11.5-8.2c-0.9-5.4,2.7-10.6,8.2-11.5
		C590.8,275.6,596,279.3,596.9,284.7z"/>
	<path class="st31" d="M78.2,281.8c0.9,5.4-2.7,10.6-8.2,11.5c-5.4,0.9-10.6-2.7-11.5-8.2c-0.9-5.4,2.7-10.6,8.2-11.5
		C72.1,272.7,77.2,276.3,78.2,281.8z"/>
	<path class="st31" d="M1291.4,666.3c0.9,5.4-2.7,10.6-8.2,11.5c-5.4,0.9-10.6-2.7-11.5-8.2c-0.9-5.4,2.7-10.6,8.2-11.5
		C1285.3,657.2,1290.4,660.8,1291.4,666.3z"/>
	<path class="st31" d="M1141.4,113.8c0.9,5.4-2.7,10.6-8.2,11.5c-5.4,0.9-10.6-2.7-11.5-8.2c-0.9-5.4,2.7-10.6,8.2-11.5
		C1135.4,104.7,1140.5,108.4,1141.4,113.8z"/>
	<path class="st31" d="M751.4,8.3c0.9,5.4-2.7,10.6-8.2,11.5c-5.4,0.9-10.6-2.7-11.5-8.2c-0.9-5.4,2.7-10.6,8.2-11.5
		C745.3-0.8,750.5,2.9,751.4,8.3z"/>
	<g>
		<polygon class="st32" points="386.7,210.4 375.8,183.8 480.9,143.9 		"/>
		<polygon class="st31" points="392,194 480.9,143.9 419,206.7 		"/>
		<polygon class="st31" points="351.8,172.9 480.9,143.9 375.8,183.8 		"/>
		<polygon class="st33" points="392,194 386.7,210.4 402.7,199 		"/>
	</g>
	<linearGradient id="SVGID_8_" gradientUnits="userSpaceOnUse" x1="311.3704" y1="256.0329" x2="389.2643" y2="256.0329">
		<stop  offset="0" style="stop-color:#151D81"/>
		<stop  offset="0.1191" style="stop-color:#131B6D"/>
		<stop  offset="0.2983" style="stop-color:#101857"/>
		<stop  offset="0.4923" style="stop-color:#0E1647"/>
		<stop  offset="0.71" style="stop-color:#0D143D"/>
		<stop  offset="1" style="stop-color:#0D143A"/>
	</linearGradient>
	<path class="st34" d="M350.2,308.1C350.2,308.1,350.2,308.1,350.2,308.1c-7.3-0.2-13.7-1.3-19-3.2c-1.2-0.4-1.8-1.8-1.4-3
		c0.4-1.2,1.8-1.8,3-1.4c4.8,1.8,10.7,2.8,17.5,2.9c1.3,0,2.3,1.1,2.3,2.4C352.5,307.1,351.5,308.1,350.2,308.1z M368.7,306.9
		c-1.1,0-2.1-0.8-2.3-2c-0.2-1.3,0.7-2.4,2-2.6c5.8-0.8,11.8-2,18-3.6c1.2-0.3,2.5,0.4,2.8,1.7c0.3,1.2-0.4,2.5-1.7,2.8
		c-6.3,1.6-12.5,2.8-18.5,3.7C368.9,306.9,368.8,306.9,368.7,306.9z M317.6,293.9c-0.8,0-1.5-0.4-2-1.1c-1.8-2.9-3.1-6.2-3.8-9.9
		c-0.3-1.2-0.4-2.8-0.4-4.5c0-1.6,0.1-3.3,0.4-5c0.2-1.3,1.4-2.2,2.6-2c1.3,0.2,2.1,1.4,2,2.6c-0.2,1.5-0.3,2.9-0.3,4.3
		c0,1.9,0.2,3,0.3,3.6c0.6,3.1,1.7,5.9,3.2,8.4c0.7,1.1,0.3,2.5-0.7,3.2C318.4,293.8,318,293.9,317.6,293.9z M348.3,265.3
		c-1,0-1.9-0.6-2.2-1.6c-0.4-1.2,0.3-2.5,1.5-2.9c3.6-1.1,7.4-3.3,7.4-6.1c0-0.2,0-0.5-0.1-0.7c-0.2-0.9-0.6-1.8-1.4-2.5
		c-0.9-0.9-0.9-2.4,0-3.3c0.9-0.9,2.4-0.9,3.3,0c1.4,1.4,2.3,3.1,2.7,4.9c0.1,0.5,0.2,1.1,0.2,1.6c0,4.6-3.9,8.5-10.6,10.6
		C348.8,265.3,348.5,265.3,348.3,265.3z M330.1,264.9c-0.3,0-0.7-0.1-1-0.2c-2.5-1.2-4.3-2.8-5.4-4.8c-0.2-0.3-0.4-0.7-0.5-1
		c-0.9,0.7-2.2,0.7-3-0.1c-0.9-0.9-1-2.3-0.1-3.3c0.4-0.4,0.8-0.8,1.2-1.2c-0.8-2.4-1.3-4.9-1.5-7.3c-0.1-1.3,0.8-2.4,2.1-2.5
		c1.3-0.1,2.4,0.8,2.5,2.1c0.1,1.5,0.4,3,0.8,4.5c3.4-2.4,7.4-4.2,11.9-5.4c1.2-0.3,2.5,0.4,2.8,1.6c0.3,1.2-0.4,2.5-1.6,2.8
		c-4.4,1.2-8.2,3-11.4,5.4c0.3,0.7,0.7,1.3,1,2c0.6,1.1,1.7,2.1,3.3,2.8c1.2,0.5,1.7,1.9,1.1,3.1C331.8,264.4,331,264.9,330.1,264.9
		z M326.4,231.4c-0.4,0-0.8-0.1-1.2-0.3c-1.1-0.7-1.4-2.1-0.8-3.2c3.2-5.2,7.8-10,13.5-14c1-0.7,2.5-0.5,3.2,0.6
		c0.7,1.1,0.5,2.5-0.6,3.2c-5.1,3.6-9.3,7.9-12.1,12.6C328,231,327.2,231.4,326.4,231.4z M356,210.3c-1,0-2-0.7-2.2-1.7
		c-0.3-1.2,0.4-2.5,1.6-2.8c6.7-1.8,13.4-2.2,19.4-1.2c1.3,0.2,2.1,1.4,1.9,2.7c-0.2,1.3-1.4,2.1-2.7,1.9
		c-5.4-0.9-11.4-0.5-17.4,1.1C356.4,210.3,356.2,210.3,356,210.3z"/>
</g>
</svg>
